<svg width="866" height="683" viewBox="0 0 866 683" fill="none" xmlns="http://www.w3.org/2000/svg">
<g opacity="0.78">
<path d="M734.83 477.93C748.09 369.65 683.83 225.74 617.25 166.31C497 59 397.12 79.77 319.43 118.2C241.74 156.63 230.65 284.92 177 343C123.35 401.08 92.85 479.12 174.23 556.84C255.61 634.56 321.23 595.07 406.37 590.14C491.51 585.21 604.3 624.03 665.37 590.28C708 566.69 729 525.79 734.83 477.93Z" fill="#E1E1E1"/>
<path opacity="0.7" d="M734.83 477.93C748.09 369.65 683.83 225.74 617.25 166.31C497 59 397.12 79.77 319.43 118.2C241.74 156.63 230.65 284.92 177 343C123.35 401.08 92.85 479.12 174.23 556.84C255.61 634.56 321.23 595.07 406.37 590.14C491.51 585.21 604.3 624.03 665.37 590.28C708 566.69 729 525.79 734.83 477.93Z" fill="#E1E1E1"/>
</g>
<g opacity="0.7">
<path d="M405.24 642.61C517.829 642.61 609.1 614.171 609.1 579.09C609.1 544.009 517.829 515.57 405.24 515.57C292.651 515.57 201.38 544.009 201.38 579.09C201.38 614.171 292.651 642.61 405.24 642.61Z" fill="#E1E1E1"/>
<path opacity="0.5" d="M405.24 642.61C517.829 642.61 609.1 614.171 609.1 579.09C609.1 544.009 517.829 515.57 405.24 515.57C292.651 515.57 201.38 544.009 201.38 579.09C201.38 614.171 292.651 642.61 405.24 642.61Z" fill="#E1E1E1"/>
</g>
<path d="M398.11 474.12V75.1799" stroke="#2F2E41" stroke-miterlimit="10"/>
<path d="M138.79 478.06H390.45L772.76 601.47" stroke="#2F2E41" stroke-miterlimit="10"/>
<path d="M253.43 468.71H236V181.28H271.88L256.39 125.4H209.94L194.45 181.28H230.33V468.71H212.89C208.433 468.709 204.154 470.459 200.974 473.583C197.794 476.706 195.969 480.953 195.89 485.41C195.89 485.41 195.89 485.5 195.89 485.54V485.74C196.41 489.74 212.89 492.96 233.13 492.96C253.37 492.96 269.85 489.74 270.37 485.74H270.46C270.464 483.502 270.026 481.286 269.172 479.218C268.317 477.15 267.063 475.271 265.481 473.689C263.899 472.107 262.02 470.853 259.952 469.998C257.884 469.144 255.668 468.706 253.43 468.71Z" fill="#2F2E41"/>
<path d="M485 55.4V393.83L739.8 435.75V13.48L485 55.4ZM733.2 152.3L603.64 159.64V42.07L733.18 21.45L733.2 152.3ZM603.62 172L733.18 166.06V284.3L603.62 278.24V172ZM593.11 277.75L489.27 272.9V177.26L593.11 172.5V277.75ZM593.11 43.75V160.23L489.27 166.12V60.26L593.11 43.75ZM489.27 284L593.11 290V405.49L489.27 389V284ZM603.62 407.16V290.62L733.18 298.07V427.78L603.62 407.16Z" fill="#CCCCCC"/>
<path d="M379.88 299C379.88 299 333.68 293.53 303.28 317.24C272.88 340.95 246.75 440.04 247.36 487.45C247.97 534.86 265.59 558.58 309.97 578.03C354.35 597.48 436.97 590.19 483.22 575.6C529.47 561.01 544.62 509.94 544.01 482.6C543.4 455.26 513.01 423.6 502.67 416.95C492.33 410.3 463.16 396.28 448.57 374.39C433.98 352.5 412.7 305.12 379.88 299Z" fill="#CCCCCC"/>
<path opacity="0.13" d="M491.69 572.41C474.22 570.05 453.51 565.31 437.83 555.79C404.72 535.69 396.44 497.85 384.62 483.66C372.8 469.47 351.51 470.66 342.06 455.29C332.61 439.92 347.97 326.41 320.77 319.29C315.241 317.707 309.521 316.892 303.77 316.87L303.24 317.26C272.85 340.97 246.71 440.06 247.32 487.47C247.93 534.88 265.55 558.6 309.93 578.05C354.31 597.5 436.93 590.21 483.18 575.62C486.077 574.716 488.918 573.644 491.69 572.41Z" fill="black"/>
<path d="M361.69 320.47C361.69 320.47 331.54 326.24 326.21 331.56C320.88 336.88 298.72 420.23 298.72 420.23C298.72 420.23 308.48 417.57 317.35 421.12C326.22 424.67 327.1 434 328 438.41C328.9 442.82 329.33 454.41 329.33 454.41C329.33 454.41 418.95 446.41 438.02 441.97C457.09 437.53 486.1 435.5 486.1 435.5C486.1 435.5 437.1 324.95 429.53 320.96C421.96 316.97 390.53 316.52 386.08 317.41C381.63 318.3 361.69 320.47 361.69 320.47Z" fill="#0071F2"/>
<g opacity="0.13">
<path d="M332 423.2C331.96 423.196 331.92 423.184 331.885 423.165C331.849 423.146 331.817 423.12 331.792 423.088C331.767 423.056 331.748 423.019 331.738 422.98C331.727 422.941 331.724 422.9 331.73 422.86L339.27 361.23C339.274 361.19 339.286 361.15 339.305 361.115C339.324 361.079 339.35 361.047 339.382 361.022C339.414 360.997 339.451 360.978 339.49 360.968C339.529 360.957 339.57 360.954 339.61 360.96C339.65 360.964 339.69 360.976 339.725 360.995C339.761 361.014 339.793 361.04 339.818 361.072C339.843 361.104 339.862 361.141 339.872 361.18C339.883 361.219 339.886 361.26 339.88 361.3L332.34 422.93C332.336 422.97 332.325 423.01 332.305 423.045C332.286 423.081 332.26 423.113 332.228 423.138C332.196 423.163 332.159 423.182 332.12 423.192C332.081 423.203 332.04 423.206 332 423.2Z" fill="black"/>
</g>
<g opacity="0.13">
<path d="M337.74 378C337.674 377.996 337.611 377.972 337.56 377.93C337.527 377.906 337.499 377.876 337.478 377.841C337.457 377.807 337.444 377.768 337.438 377.728C337.432 377.688 337.435 377.647 337.446 377.608C337.456 377.568 337.475 377.532 337.5 377.5L347.7 364.2C347.75 364.136 347.822 364.093 347.903 364.082C347.983 364.071 348.065 364.092 348.13 364.14C348.162 364.165 348.189 364.195 348.209 364.23C348.229 364.265 348.242 364.304 348.247 364.344C348.251 364.385 348.248 364.425 348.236 364.464C348.225 364.503 348.206 364.539 348.18 364.57L338 377.86C337.969 377.901 337.93 377.935 337.886 377.959C337.841 377.983 337.791 377.997 337.74 378Z" fill="black"/>
</g>
<g opacity="0.13">
<path d="M368.34 386C368.274 385.998 368.21 385.976 368.156 385.936C368.103 385.897 368.062 385.843 368.04 385.78C368.028 385.742 368.023 385.702 368.027 385.662C368.03 385.622 368.041 385.583 368.06 385.548C368.079 385.513 368.104 385.481 368.135 385.456C368.166 385.43 368.202 385.411 368.24 385.4C368.53 385.3 397.33 376.07 416.24 376.07C416.322 376.07 416.401 376.103 416.459 376.161C416.517 376.219 416.55 376.298 416.55 376.38C416.55 376.462 416.517 376.541 416.459 376.599C416.401 376.657 416.322 376.69 416.24 376.69C397.44 376.69 368.74 385.89 368.45 385.98L368.34 386Z" fill="black"/>
</g>
<g opacity="0.13">
<path d="M412.67 398.37C412.599 398.369 412.53 398.344 412.476 398.298C412.421 398.253 412.384 398.19 412.37 398.12C410.65 389.5 397.15 382 397 381.93C396.958 381.907 396.922 381.874 396.895 381.835C396.867 381.795 396.85 381.75 396.843 381.702C396.836 381.655 396.84 381.606 396.856 381.561C396.871 381.515 396.896 381.474 396.93 381.44C396.93 381.44 399.02 379.31 398.62 377.29C398.3 375.67 394.89 375.29 393.62 375.29C393.577 375.292 393.533 375.283 393.494 375.266C393.454 375.249 393.418 375.223 393.39 375.19C393.36 375.159 393.338 375.12 393.326 375.079C393.313 375.037 393.311 374.993 393.32 374.95L395.24 360.17C395.252 360.089 395.296 360.015 395.361 359.965C395.426 359.915 395.508 359.891 395.59 359.9C395.671 359.912 395.743 359.956 395.792 360.022C395.841 360.087 395.861 360.169 395.85 360.25L394 374.71C395.17 374.76 398.85 375.08 399.27 377.17C399.65 379.05 398.27 380.88 397.68 381.58C399.87 382.83 411.37 389.78 413.02 398C413.035 398.081 413.016 398.164 412.97 398.232C412.923 398.299 412.851 398.345 412.77 398.36L412.67 398.37Z" fill="black"/>
</g>
<path d="M378.24 303.92C378.24 303.92 361.69 309.24 359.32 313.38C356.95 317.52 358.73 346.48 358.73 350.03C358.73 353.58 360.8 347.96 362.57 343.82C364.34 339.68 370.57 333.48 372.62 334.07C374.67 334.66 375.87 337.07 375.87 340.87C375.87 344.67 380.6 350 384.74 353C388.88 356 392.74 358.91 392.74 358.91C392.74 358.91 401.31 346.49 403.38 343.24C405.45 339.99 405.16 333.19 405.45 330.83C405.74 328.47 411.07 337.33 412.25 334.97C413.43 332.61 409.59 330.53 405.45 324.03C401.31 317.53 402.5 310.73 396.29 306.03C390.08 301.33 383 302.74 378.24 303.92Z" fill="#0071F2"/>
<g opacity="0.2">
<path d="M378.24 303.92C378.24 303.92 361.69 309.24 359.32 313.38C356.95 317.52 358.73 346.48 358.73 350.03C358.73 353.58 360.8 347.96 362.57 343.82C364.34 339.68 370.57 333.48 372.62 334.07C374.67 334.66 375.87 337.07 375.87 340.87C375.87 344.67 380.6 350 384.74 353C388.88 356 392.74 358.91 392.74 358.91C392.74 358.91 401.31 346.49 403.38 343.24C405.45 339.99 405.16 333.19 405.45 330.83C405.74 328.47 411.07 337.33 412.25 334.97C413.43 332.61 409.59 330.53 405.45 324.03C401.31 317.53 402.5 310.73 396.29 306.03C390.08 301.33 383 302.74 378.24 303.92Z" fill="black"/>
</g>
<path d="M339.07 423.78C339.07 423.78 328.87 409.15 316.46 407.78C304.05 406.41 288.97 416.65 288.53 420.19C288.09 423.73 284.98 442.81 287.2 445.47C289.42 448.13 297.84 450.34 314.2 445.02C330.56 439.7 337.3 433.09 339.07 423.78Z" fill="#0071F2"/>
<g opacity="0.2">
<path d="M339.07 423.78C339.07 423.78 328.87 409.15 316.46 407.78C304.05 406.41 288.97 416.65 288.53 420.19C288.09 423.73 284.98 442.81 287.2 445.47C289.42 448.13 297.84 450.34 314.2 445.02C330.56 439.7 337.3 433.09 339.07 423.78Z" fill="black"/>
</g>
<path d="M304.49 427.77C304.49 427.77 287.85 434.38 287.2 447.28C286.84 454.42 298.72 457.48 311.14 457.48C323.56 457.48 341.29 441.96 352.82 435.31C364.35 428.66 390.95 413.14 394.05 411.81C397.15 410.48 407.8 414.03 412.23 415.36C416.66 416.69 425.09 416.69 425.09 416.69C425.09 416.69 431.3 426.44 434.4 426.44C437.5 426.44 427.75 411.81 426.4 408.71C425.05 405.61 403.34 398.51 400.68 398.51C398.02 398.51 336 414 326.66 417.57C317.32 421.14 304.49 427.77 304.49 427.77Z" fill="#F9B499"/>
<path d="M434.17 329.16L420.66 405.16L518.2 405.6L532.71 333.53C532.838 332.892 532.826 332.233 532.673 331.6C532.521 330.967 532.233 330.375 531.828 329.864C531.424 329.354 530.913 328.938 530.331 328.646C529.749 328.353 529.111 328.191 528.46 328.17L438.71 325.47C437.636 325.437 436.586 325.791 435.752 326.469C434.919 327.147 434.357 328.102 434.17 329.16Z" fill="#2F2E41"/>
<path opacity="0.2" d="M434.17 329.16L420.66 405.16L518.2 405.6L532.71 333.53C532.838 332.892 532.826 332.233 532.673 331.6C532.521 330.967 532.233 330.375 531.828 329.864C531.424 329.354 530.913 328.938 530.331 328.646C529.749 328.353 529.111 328.191 528.46 328.17L438.71 325.47C437.636 325.437 436.586 325.791 435.752 326.469C434.919 327.147 434.357 328.102 434.17 329.16Z" fill="white"/>
<path d="M420.66 405.16L373.16 438.75L481.79 435.65L518.2 405.6L420.66 405.16Z" fill="#2F2E41"/>
<g opacity="0.2">
<path d="M420.66 405.16L373.16 438.75L481.79 435.65L518.2 405.6L420.66 405.16Z" fill="black"/>
</g>
<path d="M456.57 438.41C456.57 438.41 495.57 404.27 534.16 392.74C572.75 381.21 580.72 382.99 579.83 400.28C578.94 417.57 560.32 508 547.91 531.08C535.5 554.16 520 596.26 520.42 604.24C520.84 612.22 535.94 635.72 549.24 644.14C562.54 652.56 561.24 662.77 552.78 664.54C544.32 666.31 534.61 669.42 505.78 650.79C476.95 632.16 464.98 605.57 466.78 598.92C468.58 592.27 487.17 583.4 494.71 570.1C502.25 556.8 514.66 507.1 515.55 484.52C516.272 470.247 519.266 456.18 524.42 442.85C524.42 442.85 475.65 451.71 461.42 460.58L456.57 438.41Z" fill="#F9B499"/>
<path d="M494.7 570.1C494.14 571.1 493.49 572.1 492.82 573.01C499.66 573.77 509.52 576.2 517.76 583.4C519.881 585.247 521.903 587.203 523.82 589.26C532.32 577.86 541.88 541.82 552.66 527C580.53 488.71 578.94 417.57 579.83 400.28C580.72 382.99 572.74 381.22 534.16 392.74C495.58 404.26 456.57 438.41 456.57 438.41L461.45 460.58C475.64 451.71 524.45 442.85 524.45 442.85C519.296 456.18 516.302 470.247 515.58 484.52C514.65 507.14 502.24 556.8 494.7 570.1Z" fill="#2F2E41"/>
<path d="M494.7 570.1C494.14 571.1 493.49 572.1 492.82 573.01C499.66 573.77 509.52 576.2 517.76 583.4C519.881 585.247 521.903 587.203 523.82 589.26C532.32 577.86 541.88 541.82 552.66 527C580.53 488.71 578.94 417.57 579.83 400.28C580.72 382.99 572.74 381.22 534.16 392.74C495.58 404.26 456.57 438.41 456.57 438.41L461.45 460.58C475.64 451.71 524.45 442.85 524.45 442.85C519.296 456.18 516.302 470.247 515.58 484.52C514.65 507.14 502.24 556.8 494.7 570.1Z" fill="#2F2E41"/>
<path d="M398.11 474.12C398.11 474.12 420 473.51 440.06 466.22C460.12 458.93 423.65 445.55 409.66 452.84C405.754 454.737 402.539 457.809 400.468 461.625C398.396 465.442 397.572 469.811 398.11 474.12Z" fill="#3F3D56"/>
<path opacity="0.2" d="M398.11 474.12C398.11 474.12 420 473.51 440.06 466.22C460.12 458.93 423.65 445.55 409.66 452.84C405.754 454.737 402.539 457.809 400.468 461.625C398.396 465.442 397.572 469.811 398.11 474.12Z" fill="black"/>
<path d="M340.4 445.51C340.4 445.51 326.21 453.51 321.34 462.36C316.47 471.21 337.45 486 359.62 485.12C381.79 484.24 422.43 460.12 422.43 460.12C422.43 460.12 422.87 499.12 430.43 513.32C437.99 527.52 472.55 562.1 486.3 570.96C500.05 579.82 546.15 613.09 553.3 618.41C560.45 623.73 573.69 633.48 576.8 633.93C579.91 634.38 612.27 594.93 619.8 581.61C627.33 568.29 633.98 540.37 631.32 534.16C628.66 527.95 623.32 533.28 618.02 537.71C612.72 542.14 563.93 574.51 559.5 576.71C557.079 577.954 554.556 578.991 551.96 579.81C551.96 579.81 512 541.72 490.71 512.46C469.42 483.2 467.65 445.46 459.71 431.32C451.77 417.18 440.2 410.92 422.91 412.7C405.62 414.48 369.67 423.78 340.4 445.51Z" fill="#F9B499"/>
<path d="M547.42 577.19C538 568 502.87 520.85 489 493.71C468.66 453.95 466.46 440.4 458.48 426.22C450.5 412.04 438.48 410.92 421.16 412.7C403.84 414.48 372.93 417.7 334.97 439.21C334.97 439.21 319.03 447.87 314.15 456.74C309.27 465.61 328.51 490.16 359.38 487.34C381.48 485.34 420.24 462.43 420.24 462.43C420.24 462.43 421.16 499.16 428.7 513.34C436.24 527.52 470.82 562.12 484.56 570.98C493.28 576.61 515 591.98 531.56 603.93C535.69 589.08 543 581 547.42 577.19Z" fill="#2F2E41"/>
<path d="M553.23 618.43C560.32 623.75 573.62 633.5 576.73 633.95C579.84 634.4 612.2 594.95 619.73 581.63C627.26 568.31 633.91 540.39 631.25 534.18C628.59 527.97 623.25 533.3 617.95 537.73C612.65 542.16 563.86 574.53 559.43 576.73C558.26 577.31 557.2 577.79 556.25 578.2C554.97 580.63 553.42 584.4 554.55 586.93C556.32 590.93 563.86 596.24 563.86 596.24L550.45 616.36C551.65 617.25 552.6 618 553.23 618.43Z" fill="#0071F2"/>
<path d="M619.74 581.63C627.27 568.32 633.92 540.39 631.26 534.18C629.72 530.59 627.26 530.87 624.48 532.6C626.34 540.89 624.48 556.88 615.3 574.09C607.13 589.45 581.88 616.59 569.15 629.82C572.6 632.09 575.49 633.77 576.73 633.95C579.83 634.39 612.2 594.93 619.74 581.63Z" fill="white"/>
<path d="M549.24 644.14C535.94 635.72 520.86 612.22 520.42 604.24C520.401 603.362 520.472 602.484 520.63 601.62C517.982 601.719 515.428 602.634 513.32 604.24C513.32 604.24 503.57 595.37 496.03 590.49C490.63 587 483.66 586.01 480.13 585.73C473.69 591.02 467.73 595.3 466.77 598.92C464.99 605.57 476.97 632.17 505.77 650.79C534.57 669.41 544.34 666.31 552.77 664.54C561.2 662.77 562.54 652.57 549.24 644.14Z" fill="#0071F2"/>
<path d="M551.45 647.25C539.93 640.6 516.45 636.16 501.35 625.96C486.25 615.76 490.27 606.9 479.18 599.8C474.09 596.55 469.84 597.31 466.74 599.09C465.2 606.01 477.2 632.32 505.79 650.79C534.61 669.42 544.36 666.31 552.79 664.54C558.39 663.36 560.79 658.46 557.94 652.83C556.126 650.598 553.928 648.709 551.45 647.25Z" fill="white"/>
<path d="M330.51 562.44C330.51 562.44 339 552.1 340.24 560C341.48 567.9 339.63 582.5 333.55 588C327.47 593.5 324.43 585 324.43 585L328.08 580.13C328.08 580.13 331.08 586.21 333.55 576.49C336.02 566.77 328.69 567.98 328.69 567.98L330.51 562.44Z" fill="#2F2E41"/>
<path d="M324 601.34C319 605.07 302.55 605.07 297.51 601.34C286.85 593.45 288.69 555.34 288.69 555.34H332.78C332.78 555.34 334.65 593.45 324 601.34Z" fill="#2F2E41"/>
<path d="M293.48 548.15C293.44 548.151 293.4 548.145 293.362 548.13C293.325 548.116 293.29 548.094 293.261 548.066C293.232 548.038 293.209 548.004 293.194 547.967C293.178 547.93 293.17 547.89 293.17 547.85C293.177 546.9 293.386 545.963 293.785 545.1C294.183 544.238 294.761 543.471 295.48 542.85C296.149 542.287 296.687 541.584 297.056 540.791C297.425 539.998 297.616 539.135 297.616 538.26C297.616 537.386 297.425 536.522 297.056 535.729C296.687 534.936 296.149 534.233 295.48 533.67C294.759 533.051 294.181 532.284 293.785 531.421C293.388 530.558 293.183 529.62 293.183 528.67C293.183 527.72 293.388 526.782 293.785 525.919C294.181 525.056 294.759 524.289 295.48 523.67C296.151 523.107 296.69 522.404 297.06 521.61C297.43 520.816 297.622 519.951 297.622 519.075C297.622 518.199 297.43 517.334 297.06 516.54C296.69 515.746 296.151 515.043 295.48 514.48C294.761 513.86 294.184 513.093 293.788 512.23C293.393 511.367 293.188 510.429 293.188 509.48C293.188 508.531 293.393 507.593 293.788 506.73C294.184 505.867 294.761 505.1 295.48 504.48C296.144 503.91 296.679 503.205 297.048 502.412C297.417 501.618 297.612 500.755 297.62 499.88C297.619 499.84 297.625 499.801 297.64 499.764C297.655 499.727 297.677 499.693 297.705 499.665C297.733 499.637 297.767 499.615 297.804 499.6C297.841 499.585 297.88 499.579 297.92 499.58C297.96 499.579 298 499.585 298.038 499.6C298.075 499.614 298.11 499.636 298.139 499.664C298.168 499.692 298.191 499.726 298.206 499.763C298.222 499.8 298.23 499.84 298.23 499.88C298.22 500.828 298.01 501.764 297.614 502.625C297.217 503.487 296.644 504.255 295.93 504.88C295.259 505.443 294.72 506.146 294.35 506.94C293.98 507.734 293.788 508.599 293.788 509.475C293.788 510.351 293.98 511.216 294.35 512.01C294.72 512.804 295.259 513.507 295.93 514.07C296.648 514.691 297.223 515.458 297.618 516.321C298.012 517.184 298.217 518.121 298.217 519.07C298.217 520.019 298.012 520.956 297.618 521.819C297.223 522.682 296.648 523.45 295.93 524.07C295.259 524.633 294.72 525.336 294.35 526.13C293.98 526.924 293.788 527.789 293.788 528.665C293.788 529.541 293.98 530.406 294.35 531.2C294.72 531.994 295.259 532.697 295.93 533.26C296.649 533.88 297.226 534.647 297.622 535.51C298.017 536.373 298.222 537.311 298.222 538.26C298.222 539.209 298.017 540.147 297.622 541.01C297.226 541.873 296.649 542.64 295.93 543.26C295.266 543.83 294.731 544.535 294.362 545.328C293.993 546.122 293.798 546.985 293.79 547.86C293.789 547.899 293.78 547.938 293.763 547.974C293.747 548.01 293.724 548.042 293.695 548.069C293.666 548.096 293.632 548.117 293.596 548.131C293.559 548.145 293.519 548.151 293.48 548.15Z" fill="#3F3D56"/>
<path d="M308.71 548.15C308.67 548.151 308.631 548.145 308.594 548.13C308.557 548.115 308.523 548.093 308.495 548.065C308.467 548.037 308.445 548.003 308.43 547.966C308.415 547.929 308.409 547.89 308.41 547.85C308.41 545.85 309.59 544.91 310.74 543.97C311.89 543.03 312.85 542.23 312.85 540.56C312.85 538.89 311.85 538.04 310.74 537.15C309.63 536.26 308.41 535.24 308.41 533.27C308.41 531.3 309.59 530.33 310.74 529.38C311.89 528.43 312.85 527.65 312.85 525.97C312.85 524.29 311.85 523.45 310.74 522.56C309.63 521.67 308.41 520.64 308.41 518.67C308.41 516.7 309.59 515.73 310.74 514.79C311.89 513.85 312.85 513.05 312.85 511.37C312.85 511.33 312.858 511.29 312.874 511.253C312.889 511.216 312.912 511.182 312.941 511.154C312.97 511.126 313.005 511.104 313.042 511.09C313.08 511.075 313.12 511.069 313.16 511.07C313.2 511.069 313.239 511.075 313.276 511.09C313.313 511.105 313.347 511.127 313.375 511.155C313.403 511.183 313.425 511.217 313.44 511.254C313.455 511.291 313.461 511.33 313.46 511.37C313.46 513.37 312.28 514.37 311.13 515.26C309.98 516.15 309 517 309 518.67C309 520.34 310 521.19 311.11 522.09C312.22 522.99 313.44 524 313.44 525.97C313.44 527.94 312.26 528.92 311.11 529.86C309.96 530.8 309 531.59 309 533.27C309 534.95 310 535.79 311.11 536.68C312.22 537.57 313.44 538.59 313.44 540.56C313.44 542.53 312.26 543.5 311.11 544.44C309.96 545.38 309 546.17 309 547.85C309 547.928 308.97 548.003 308.916 548.059C308.862 548.115 308.788 548.147 308.71 548.15Z" fill="#3F3D56"/>
<path d="M325.47 548.15C325.43 548.151 325.39 548.145 325.352 548.13C325.315 548.116 325.28 548.094 325.251 548.066C325.222 548.038 325.199 548.004 325.184 547.967C325.168 547.93 325.16 547.89 325.16 547.85C325.167 546.9 325.376 545.963 325.775 545.1C326.173 544.238 326.751 543.471 327.47 542.85C328.139 542.287 328.677 541.584 329.046 540.791C329.415 539.998 329.606 539.135 329.606 538.26C329.606 537.386 329.415 536.522 329.046 535.729C328.677 534.936 328.139 534.233 327.47 533.67C326.749 533.051 326.171 532.284 325.775 531.421C325.378 530.558 325.173 529.62 325.173 528.67C325.173 527.72 325.378 526.782 325.775 525.919C326.171 525.056 326.749 524.289 327.47 523.67C328.141 523.107 328.68 522.404 329.05 521.61C329.42 520.816 329.612 519.951 329.612 519.075C329.612 518.199 329.42 517.334 329.05 516.54C328.68 515.746 328.141 515.043 327.47 514.48C326.751 513.86 326.174 513.093 325.778 512.23C325.383 511.367 325.178 510.429 325.178 509.48C325.178 508.531 325.383 507.593 325.778 506.73C326.174 505.867 326.751 505.1 327.47 504.48C328.134 503.91 328.669 503.205 329.038 502.412C329.407 501.618 329.602 500.755 329.61 499.88C329.609 499.84 329.615 499.801 329.63 499.764C329.645 499.727 329.667 499.693 329.695 499.665C329.723 499.637 329.757 499.615 329.794 499.6C329.831 499.585 329.87 499.579 329.91 499.58C329.95 499.579 329.99 499.585 330.028 499.6C330.065 499.614 330.1 499.636 330.129 499.664C330.158 499.692 330.181 499.726 330.196 499.763C330.212 499.8 330.22 499.84 330.22 499.88C330.21 500.828 330 501.764 329.604 502.625C329.207 503.487 328.634 504.255 327.92 504.88C327.249 505.443 326.71 506.146 326.34 506.94C325.97 507.734 325.778 508.599 325.778 509.475C325.778 510.351 325.97 511.216 326.34 512.01C326.71 512.804 327.249 513.507 327.92 514.07C328.638 514.691 329.213 515.458 329.608 516.321C330.002 517.184 330.207 518.121 330.207 519.07C330.207 520.019 330.002 520.956 329.608 521.819C329.213 522.682 328.638 523.45 327.92 524.07C327.249 524.633 326.71 525.336 326.34 526.13C325.97 526.924 325.778 527.789 325.778 528.665C325.778 529.541 325.97 530.406 326.34 531.2C326.71 531.994 327.249 532.697 327.92 533.26C328.639 533.88 329.216 534.647 329.612 535.51C330.007 536.373 330.212 537.311 330.212 538.26C330.212 539.209 330.007 540.147 329.612 541.01C329.216 541.873 328.639 542.64 327.92 543.26C327.254 543.828 326.718 544.533 326.349 545.327C325.98 546.121 325.786 546.985 325.78 547.86C325.779 547.899 325.77 547.938 325.753 547.974C325.737 548.01 325.714 548.042 325.685 548.069C325.656 548.096 325.623 548.117 325.586 548.131C325.549 548.145 325.509 548.151 325.47 548.15Z" fill="#3F3D56"/>
<path d="M332.78 555.33C332.78 556.43 322.91 557.33 310.78 557.33C298.65 557.33 288.78 556.43 288.78 555.33C288.78 554.23 298.65 553.33 310.78 553.33C322.91 553.33 332.78 554.22 332.78 555.33Z" fill="#2F2E41"/>
<path opacity="0.13" d="M332.78 555.33C332.78 556.43 322.91 557.33 310.78 557.33C298.65 557.33 288.78 556.43 288.78 555.33C288.78 554.23 298.65 553.33 310.78 553.33C322.91 553.33 332.78 554.22 332.78 555.33Z" fill="black"/>
<path d="M373.49 280.93C373.49 280.93 375.55 303.33 376.42 310.4C377.29 317.47 379.27 337.8 381.31 344.52C383.35 351.24 394.46 362.93 395.54 360.23C396.62 357.53 402.11 339.23 399.91 328.4C397.71 317.57 397.04 308.11 398.41 305.4C399.78 302.69 404.69 299.53 404.69 299.53C398.962 296.606 393.4 293.368 388.03 289.83C380.13 284.51 374.57 278.52 373.49 280.93Z" fill="#F9B499"/>
<path d="M372.66 284.13C372.66 284.13 385.43 294.82 395.23 298.68C405.03 302.54 420.08 302.33 422.23 297.23C424.38 292.13 418.52 251.83 413.47 241.23C408.42 230.63 403 230.44 394.06 229.63C385.12 228.82 367.29 236.09 364.16 244.71C361.03 253.33 364.59 265.53 367.16 272.71C368.534 276.721 370.38 280.555 372.66 284.13Z" fill="#F9B499"/>
<path d="M407 267.64C405.965 267.621 404.946 267.377 404.014 266.927C403.082 266.476 402.258 265.829 401.6 265.03C400.047 263.153 399.154 260.818 399.059 258.385C398.963 255.951 399.67 253.553 401.07 251.56C401.673 250.66 402.48 249.916 403.426 249.388C404.371 248.86 405.428 248.562 406.511 248.52C407.593 248.478 408.67 248.693 409.653 249.147C410.637 249.6 411.499 250.28 412.17 251.13C413.716 253.008 414.604 255.34 414.7 257.771C414.796 260.201 414.093 262.596 412.7 264.59C412.078 265.468 411.265 266.193 410.323 266.713C409.381 267.232 408.334 267.532 407.26 267.59L407 267.64ZM406.76 249.13H406.53C405.539 249.183 404.573 249.462 403.707 249.946C402.84 250.429 402.096 251.105 401.53 251.92C400.214 253.801 399.55 256.061 399.64 258.354C399.73 260.648 400.57 262.849 402.03 264.62C402.642 265.399 403.431 266.023 404.331 266.438C405.231 266.854 406.217 267.05 407.207 267.011C408.198 266.972 409.165 266.699 410.029 266.214C410.894 265.729 411.631 265.045 412.18 264.22C413.49 262.337 414.15 260.078 414.06 257.786C413.969 255.494 413.134 253.294 411.68 251.52C411.077 250.792 410.325 250.202 409.474 249.79C408.624 249.378 407.695 249.153 406.75 249.13H406.76Z" fill="#3F3D56"/>
<path d="M420.67 265.56C419.49 265.56 418.37 264.56 417.5 262.79C416.57 260.704 416.07 258.453 416.03 256.17C415.894 253.893 416.213 251.612 416.97 249.46C417.72 247.57 418.79 246.46 419.97 246.46C421.15 246.46 422.34 247.39 423.23 249.23C425.011 253.46 425.196 258.193 423.75 262.55C423.01 264.45 421.93 265.55 420.75 265.55L420.67 265.56ZM420.08 247.06H420C419.06 247.06 418.15 248.06 417.51 249.69C416.135 253.889 416.316 258.443 418.02 262.52C418.79 264.1 419.76 264.98 420.7 264.95C421.64 264.92 422.54 263.95 423.18 262.32C423.907 260.248 424.217 258.052 424.09 255.86C424.044 253.661 423.565 251.493 422.68 249.48C422 247.94 421 247.06 420.08 247.06Z" fill="#3F3D56"/>
<path d="M414 254.62C413.96 254.615 413.922 254.602 413.888 254.583C413.853 254.563 413.823 254.536 413.799 254.505C413.775 254.473 413.757 254.437 413.747 254.398C413.737 254.36 413.734 254.32 413.74 254.28C413.769 254.045 413.852 253.82 413.982 253.622C414.112 253.425 414.286 253.26 414.49 253.14C414.843 253.002 415.225 252.953 415.601 252.996C415.978 253.04 416.338 253.175 416.65 253.39C416.686 253.408 416.718 253.433 416.744 253.463C416.77 253.494 416.789 253.529 416.802 253.568C416.814 253.606 416.818 253.646 416.814 253.686C416.811 253.726 416.799 253.765 416.78 253.8C416.743 253.872 416.68 253.927 416.604 253.954C416.527 253.98 416.443 253.975 416.37 253.94C416.143 253.778 415.881 253.669 415.606 253.623C415.331 253.576 415.048 253.592 414.78 253.67C414.663 253.746 414.564 253.846 414.488 253.964C414.412 254.081 414.362 254.212 414.34 254.35C414.336 254.39 414.324 254.43 414.305 254.465C414.286 254.501 414.26 254.533 414.228 254.558C414.196 254.583 414.159 254.602 414.12 254.612C414.081 254.623 414.04 254.626 414 254.62Z" fill="#3F3D56"/>
<path d="M372.31 270C372.247 270 372.186 269.981 372.134 269.945C372.082 269.909 372.042 269.859 372.02 269.8C371.993 269.724 371.995 269.641 372.027 269.567C372.058 269.493 372.117 269.433 372.19 269.4L398.83 258.92C398.868 258.906 398.909 258.899 398.949 258.9C398.99 258.901 399.03 258.91 399.067 258.927C399.104 258.944 399.138 258.968 399.166 258.997C399.194 259.027 399.216 259.062 399.23 259.1C399.257 259.174 399.254 259.256 399.222 259.329C399.191 259.401 399.133 259.459 399.06 259.49L372.42 270H372.31Z" fill="#3F3D56"/>
<path d="M374.8 269.76C374.8 269.76 373 273.31 378 273.5C383 273.69 386.4 271.23 384 268.24C381.6 265.25 378 262.3 381.68 258.3C385.36 254.3 392.58 250.92 388.55 246.45C384.52 241.98 369.62 246.04 373.33 242.45C377.04 238.86 394.27 235 402 235.5C409.73 236 424.17 229.99 427.33 222.15C430.49 214.31 426.07 199.81 415.68 200.61C405.29 201.41 397.54 210.61 392.94 211.15C388.34 211.69 378.86 206.69 370.94 211.25C363.02 215.81 362.74 228.55 362.03 230.12C361.32 231.69 350.61 234.05 348.72 244.93C346.83 255.81 351.81 264.49 356.24 269.33C360.67 274.17 362.68 276.03 362.68 276.03L374.8 269.76Z" fill="#3F3D56"/>
<g opacity="0.13">
<path d="M353.37 255.06C353.333 255.06 353.296 255.051 353.263 255.033C353.229 255.016 353.201 254.991 353.18 254.96C352.316 253.492 351.905 251.801 352 250.1C352 250.039 352.024 249.98 352.067 249.937C352.11 249.894 352.169 249.87 352.23 249.87C352.291 249.87 352.35 249.894 352.393 249.937C352.436 249.98 352.46 250.039 352.46 250.1C352.373 251.702 352.759 253.295 353.57 254.68C353.587 254.705 353.598 254.734 353.603 254.764C353.609 254.794 353.608 254.825 353.602 254.855C353.595 254.884 353.583 254.912 353.566 254.937C353.548 254.962 353.526 254.984 353.5 255C353.463 255.031 353.418 255.051 353.37 255.06Z" fill="black"/>
<path d="M354 246C353.949 245.998 353.9 245.981 353.86 245.95C353.818 245.907 353.795 245.85 353.795 245.79C353.795 245.73 353.818 245.673 353.86 245.63C355.541 243.691 357.664 242.186 360.05 241.24C366.27 238.49 375.18 236.89 383.8 235.34C391.9 233.89 399.56 232.51 404.48 230.34C410.19 227.77 411.97 223.02 411.21 219.44C410.45 215.86 407.52 213.85 403.51 213.85C400.58 213.85 398.62 214.6 397.66 216.09C396.14 218.46 397.71 221.95 397.73 221.99C397.753 222.046 397.754 222.108 397.732 222.165C397.709 222.221 397.665 222.266 397.61 222.29C397.583 222.303 397.554 222.311 397.524 222.313C397.494 222.314 397.464 222.31 397.436 222.299C397.408 222.289 397.383 222.273 397.361 222.253C397.339 222.232 397.322 222.207 397.31 222.18C397.24 222.03 395.62 218.42 397.31 215.84C398.31 214.22 400.45 213.39 403.54 213.39C407.78 213.39 410.9 215.67 411.69 219.39C412.48 223.11 410.61 228.14 404.69 230.8C399.69 233.02 392.04 234.4 383.91 235.86C375.32 237.41 366.43 239.01 360.27 241.73C357.959 242.646 355.901 244.103 354.27 245.98C354.233 246.011 354.187 246.03 354.138 246.034C354.09 246.037 354.041 246.026 354 246Z" fill="black"/>
<path d="M359 266.7C358.956 266.7 358.913 266.688 358.876 266.665C358.839 266.642 358.809 266.609 358.79 266.57C358.7 266.37 356.69 261.72 366.66 257.09C370.58 255.27 374.9 253.51 379.5 251.87C379.557 251.851 379.619 251.854 379.674 251.881C379.728 251.907 379.77 251.953 379.79 252.01C379.809 252.067 379.805 252.129 379.779 252.183C379.753 252.238 379.707 252.279 379.65 252.3C375.07 253.94 370.77 255.69 366.85 257.51C357.33 261.93 359.18 266.33 359.2 266.37C359.215 266.397 359.224 266.427 359.227 266.458C359.229 266.489 359.225 266.52 359.215 266.55C359.204 266.579 359.188 266.606 359.166 266.628C359.145 266.651 359.119 266.668 359.09 266.68L359 266.7Z" fill="black"/>
<path d="M383.83 250.87C383.781 250.869 383.734 250.853 383.695 250.824C383.656 250.796 383.626 250.756 383.61 250.71C383.601 250.681 383.597 250.651 383.6 250.62C383.602 250.59 383.611 250.561 383.625 250.534C383.639 250.507 383.658 250.483 383.681 250.463C383.704 250.444 383.731 250.429 383.76 250.42C385.24 249.93 386.1 249.68 386.1 249.68C386.129 249.671 386.159 249.667 386.19 249.67C386.22 249.672 386.249 249.681 386.276 249.695C386.303 249.708 386.327 249.728 386.347 249.751C386.366 249.774 386.381 249.801 386.39 249.83C386.403 249.889 386.394 249.952 386.365 250.005C386.335 250.059 386.287 250.099 386.23 250.12C386.23 250.12 385.37 250.37 383.9 250.85L383.83 250.87Z" fill="black"/>
</g>
<path d="M376.49 273.56C376.49 273.56 370.76 265.29 364.71 268.62C358.66 271.95 363.38 283.72 367.01 287.82C370.64 291.92 377.68 284.32 378.38 282.36" fill="#F9B499"/>
<path d="M392.58 368.11L310.21 327.78V271.14C310.21 269.782 309.671 268.48 308.71 267.52C307.75 266.559 306.448 266.02 305.09 266.02H170.09C168.732 266.02 167.43 266.559 166.47 267.52C165.509 268.48 164.97 269.782 164.97 271.14V372C164.97 373.358 165.509 374.66 166.47 375.62C167.43 376.581 168.732 377.12 170.09 377.12H305.09C306.448 377.12 307.75 376.581 308.71 375.62C309.671 374.66 310.21 373.358 310.21 372V346.66L392.58 368.11Z" fill="#CCCCCC"/>
<path opacity="0.2" d="M210.86 276.7H176.68V366.43H210.86V276.7Z" fill="black"/>
<path opacity="0.2" d="M302.67 276.7H298.4V366.43H302.67V276.7Z" fill="black"/>
<g opacity="0.2">
<path d="M288.85 279.14H221.55C221.51 279.141 221.47 279.135 221.432 279.12C221.395 279.106 221.36 279.084 221.331 279.056C221.302 279.028 221.279 278.994 221.264 278.957C221.248 278.92 221.24 278.88 221.24 278.84C221.24 278.758 221.273 278.679 221.331 278.621C221.389 278.563 221.468 278.53 221.55 278.53H288.85C288.89 278.53 288.93 278.538 288.967 278.554C289.004 278.569 289.038 278.592 289.066 278.621C289.094 278.65 289.116 278.685 289.13 278.722C289.145 278.76 289.151 278.8 289.15 278.84C289.151 278.88 289.145 278.919 289.13 278.956C289.115 278.994 289.093 279.027 289.065 279.055C289.037 279.083 289.003 279.105 288.966 279.12C288.929 279.135 288.89 279.141 288.85 279.14Z" fill="black"/>
</g>
<g opacity="0.2">
<path d="M288.85 288.76H221.55C221.468 288.76 221.389 288.727 221.331 288.669C221.273 288.611 221.24 288.532 221.24 288.45C221.24 288.368 221.273 288.289 221.331 288.231C221.389 288.173 221.468 288.14 221.55 288.14H288.85C288.932 288.14 289.011 288.173 289.069 288.231C289.127 288.289 289.16 288.368 289.16 288.45C289.16 288.532 289.127 288.611 289.069 288.669C289.011 288.727 288.932 288.76 288.85 288.76Z" fill="black"/>
</g>
<g opacity="0.2">
<path d="M288.85 298.37H221.55C221.505 298.378 221.459 298.376 221.416 298.365C221.372 298.353 221.331 298.332 221.296 298.303C221.261 298.274 221.233 298.238 221.214 298.196C221.195 298.155 221.185 298.11 221.185 298.065C221.185 298.02 221.195 297.975 221.214 297.934C221.233 297.892 221.261 297.856 221.296 297.827C221.331 297.798 221.372 297.777 221.416 297.765C221.459 297.754 221.505 297.752 221.55 297.76H288.85C288.921 297.773 288.986 297.811 289.033 297.866C289.079 297.922 289.105 297.992 289.105 298.065C289.105 298.138 289.079 298.208 289.033 298.264C288.986 298.319 288.921 298.357 288.85 298.37Z" fill="black"/>
</g>
<g opacity="0.2">
<path d="M288.85 308H221.55C221.468 308 221.389 307.967 221.331 307.909C221.273 307.851 221.24 307.772 221.24 307.69C221.24 307.608 221.273 307.529 221.331 307.471C221.389 307.413 221.468 307.38 221.55 307.38H288.85C288.932 307.38 289.011 307.413 289.069 307.471C289.127 307.529 289.16 307.608 289.16 307.69C289.16 307.772 289.127 307.851 289.069 307.909C289.011 307.967 288.932 308 288.85 308Z" fill="black"/>
</g>
<g opacity="0.2">
<path d="M288.85 331.49H221.55C221.468 331.49 221.389 331.457 221.331 331.399C221.273 331.341 221.24 331.262 221.24 331.18C221.24 331.098 221.273 331.019 221.331 330.961C221.389 330.903 221.468 330.87 221.55 330.87H288.85C288.932 330.87 289.011 330.903 289.069 330.961C289.127 331.019 289.16 331.098 289.16 331.18C289.16 331.262 289.127 331.341 289.069 331.399C289.011 331.457 288.932 331.49 288.85 331.49Z" fill="black"/>
</g>
<g opacity="0.2">
<path d="M288.85 340H221.55C221.51 340.001 221.47 339.995 221.432 339.98C221.395 339.966 221.36 339.944 221.331 339.916C221.302 339.888 221.279 339.854 221.264 339.817C221.248 339.78 221.24 339.74 221.24 339.7C221.24 339.618 221.273 339.539 221.331 339.481C221.389 339.423 221.468 339.39 221.55 339.39H288.85C288.89 339.39 288.93 339.398 288.967 339.414C289.004 339.429 289.038 339.452 289.066 339.481C289.094 339.51 289.116 339.545 289.13 339.582C289.145 339.62 289.151 339.66 289.15 339.7C289.151 339.74 289.145 339.779 289.13 339.816C289.115 339.853 289.093 339.887 289.065 339.915C289.037 339.943 289.003 339.965 288.966 339.98C288.929 339.995 288.89 340.001 288.85 340Z" fill="black"/>
</g>
<g opacity="0.2">
<path d="M288.85 348.58H221.55C221.468 348.58 221.389 348.547 221.331 348.489C221.273 348.431 221.24 348.352 221.24 348.27C221.24 348.23 221.248 348.19 221.264 348.153C221.279 348.116 221.302 348.082 221.331 348.054C221.36 348.026 221.395 348.004 221.432 347.99C221.47 347.975 221.51 347.969 221.55 347.97H288.85C288.89 347.969 288.929 347.975 288.966 347.99C289.003 348.005 289.037 348.027 289.065 348.055C289.093 348.083 289.115 348.117 289.13 348.154C289.145 348.191 289.151 348.23 289.15 348.27C289.151 348.31 289.145 348.35 289.13 348.388C289.116 348.425 289.094 348.46 289.066 348.489C289.038 348.518 289.004 348.541 288.967 348.556C288.93 348.572 288.89 348.58 288.85 348.58Z" fill="black"/>
</g>
<g opacity="0.2">
<path d="M288.85 366.32H221.55C221.468 366.32 221.389 366.287 221.331 366.229C221.273 366.171 221.24 366.092 221.24 366.01C221.24 365.928 221.273 365.849 221.331 365.791C221.389 365.733 221.468 365.7 221.55 365.7H288.85C288.932 365.7 289.011 365.733 289.069 365.791C289.127 365.849 289.16 365.928 289.16 366.01C289.16 366.092 289.127 366.171 289.069 366.229C289.011 366.287 288.932 366.32 288.85 366.32Z" fill="black"/>
</g>
<g opacity="0.2">
<path d="M176.68 366.74H176.57C176.532 366.727 176.498 366.706 176.468 366.679C176.438 366.652 176.415 366.619 176.398 366.583C176.381 366.547 176.372 366.507 176.37 366.467C176.369 366.427 176.376 366.387 176.39 366.35L210.58 276.61C210.593 276.572 210.614 276.538 210.641 276.508C210.668 276.478 210.701 276.455 210.737 276.438C210.773 276.421 210.813 276.412 210.853 276.41C210.893 276.409 210.933 276.416 210.97 276.43C211.008 276.444 211.043 276.466 211.073 276.494C211.102 276.522 211.126 276.556 211.143 276.593C211.16 276.63 211.169 276.67 211.17 276.711C211.171 276.751 211.164 276.792 211.15 276.83L177 366.54C176.979 366.606 176.936 366.662 176.877 366.699C176.818 366.736 176.748 366.75 176.68 366.74Z" fill="black"/>
</g>
<g opacity="0.5">
<path d="M694.75 614.78C711.131 614.78 724.41 608.821 724.41 601.47C724.41 594.119 711.131 588.16 694.75 588.16C678.369 588.16 665.09 594.119 665.09 601.47C665.09 608.821 678.369 614.78 694.75 614.78Z" fill="#E1E1E1"/>
<path opacity="0.5" d="M694.75 614.78C711.131 614.78 724.41 608.821 724.41 601.47C724.41 594.119 711.131 588.16 694.75 588.16C678.369 588.16 665.09 594.119 665.09 601.47C665.09 608.821 678.369 614.78 694.75 614.78Z" fill="#E1E1E1"/>
</g>
<path d="M660.05 404.64C663.22 406.03 670.99 405.85 670.99 405.85C670.99 405.85 669.32 400.77 669.18 400.46C667.47 396.9 662.08 391.01 657.7 391.6C656.975 391.718 656.282 391.988 655.668 392.391C655.054 392.795 654.531 393.323 654.135 393.942C653.739 394.561 653.477 395.257 653.368 395.983C653.259 396.71 653.304 397.452 653.5 398.16C654.23 401.2 657.34 403.46 660.05 404.64Z" fill="#2F2E41"/>
<path d="M761.78 378.21C757.38 377.73 752.15 383.76 750.54 387.37C750.4 387.68 748.79 392.81 748.87 392.81H748.97C748.13 393.75 747.25 394.81 746.31 395.91C744.59 398.03 742.67 400.43 740.75 403.19C738.646 406.136 736.719 409.205 734.98 412.38C733.012 415.927 731.362 419.642 730.05 423.48C730.05 423.48 730.05 423.57 730.05 423.62C730.05 422.32 730.05 418.69 729.98 418.42C729.47 414.5 726.19 407.23 721.84 406.42C721.116 406.313 720.378 406.359 719.673 406.554C718.969 406.75 718.312 407.091 717.747 407.555C717.182 408.019 716.72 408.597 716.392 409.251C716.063 409.904 715.875 410.619 715.84 411.35C715.58 414.46 717.84 417.57 720.04 419.54C722.52 421.76 729.41 423.9 729.96 424.07C728.726 428.001 727.754 432.01 727.05 436.07C726.63 438.44 726.28 440.84 725.95 443.24C725.95 442.12 725.95 441.12 725.95 440.98C725.44 437.06 722.15 429.79 717.8 428.98C717.077 428.871 716.339 428.916 715.634 429.11C714.929 429.304 714.273 429.644 713.708 430.108C713.142 430.571 712.68 431.148 712.352 431.802C712.023 432.455 711.835 433.17 711.8 433.9C711.55 437.01 713.8 440.13 716.01 442.1C718.22 444.07 724.08 446.04 725.63 446.53C725.52 447.46 725.39 448.38 725.28 449.31C724.75 453.75 724.28 458.18 723.61 462.51C723.38 464.04 723.11 465.51 722.84 467.03C722.84 466.03 722.84 465.2 722.78 465.03C722.28 461.11 718.99 453.84 714.64 453.03C713.917 452.921 713.179 452.966 712.474 453.16C711.769 453.354 711.113 453.694 710.548 454.158C709.982 454.621 709.52 455.199 709.192 455.852C708.863 456.505 708.675 457.22 708.64 457.95C708.39 461.06 710.64 464.18 712.85 466.15C715.06 468.12 720.35 469.9 722.19 470.49C721.87 472.02 721.55 473.55 721.19 475.01C720.91 476.01 720.71 477.01 720.37 478.01C720.03 479.01 719.74 479.96 719.43 480.92C718.76 482.75 718.09 484.64 717.43 486.4C716.95 487.63 716.48 488.8 716.01 489.97C716.25 488.46 716.65 485.48 716.66 485.22C716.612 481.744 715.672 478.338 713.93 475.33C713.941 474.942 713.918 474.554 713.86 474.17C713.767 473.441 713.523 472.74 713.142 472.112C712.761 471.484 712.252 470.944 711.649 470.525C711.045 470.106 710.36 469.819 709.639 469.682C708.917 469.545 708.175 469.562 707.46 469.73C703.18 470.87 700.46 478.38 700.27 482.32C700.27 482.55 700.41 485.09 700.53 486.7C700.32 485.77 700.12 484.86 699.88 483.91C699.44 482.01 698.88 480.14 698.4 478.12L697.51 475.2C697.24 474.2 696.82 473.2 696.51 472.2C695.66 469.88 694.7 467.58 693.67 465.28C695.32 464.89 701.18 463.4 703.53 461.59C705.88 459.78 708.35 456.85 708.33 453.73C708.351 452.995 708.216 452.265 707.936 451.586C707.655 450.907 707.235 450.294 706.702 449.789C706.169 449.283 705.535 448.895 704.842 448.651C704.149 448.406 703.412 448.311 702.68 448.37C698.28 448.85 694.46 455.86 693.68 459.73C693.63 459.97 693.37 462.81 693.26 464.37C692.63 462.99 692.01 461.62 691.33 460.25C689.33 456.25 687.25 452.34 685.16 448.39C684.52 447.19 683.89 445.97 683.26 444.76C683.86 444.63 690.86 443 693.49 440.98C695.83 439.19 698.31 436.25 698.29 433.13C698.31 432.395 698.176 431.664 697.896 430.985C697.615 430.305 697.195 429.692 696.662 429.186C696.129 428.679 695.496 428.29 694.803 428.045C694.11 427.799 693.373 427.702 692.64 427.76C688.24 428.24 684.42 435.25 683.64 439.12C683.58 439.41 683.21 443.5 683.17 444.54C681.78 441.88 680.43 439.21 679.17 436.54C677.492 432.92 676.049 429.195 674.85 425.39C675.13 425.32 682.44 423.66 685.14 421.59C687.48 419.8 689.96 416.86 689.94 413.73C689.959 412.995 689.824 412.264 689.542 411.585C689.26 410.906 688.839 410.294 688.305 409.788C687.771 409.283 687.137 408.895 686.443 408.651C685.75 408.406 685.013 408.311 684.28 408.37C679.88 408.85 676.07 415.86 675.28 419.73C675.22 420.03 674.82 424.43 674.81 425.23C674.74 425.01 674.64 424.79 674.58 424.57C673.373 420.734 672.51 416.799 672 412.81C671.75 410.61 671.64 408.5 671.58 406.44C672.97 406.27 679.33 405.44 681.97 403.83C684.61 402.22 687.28 399.65 687.6 396.55C687.703 395.824 687.652 395.085 687.45 394.38C687.248 393.675 686.9 393.02 686.428 392.459C685.956 391.898 685.372 391.442 684.712 391.122C684.052 390.801 683.333 390.624 682.6 390.6C678.18 390.6 673.6 397.13 672.39 400.89C672.33 401.1 671.88 403.25 671.58 404.82C671.58 403.89 671.58 402.93 671.58 402.04C671.58 398.7 671.8 395.63 672.01 392.92C672.14 391.38 672.29 389.99 672.44 388.69C673.72 387.81 678.84 384.2 680.44 381.61C682.04 379.02 683.23 375.46 682.09 372.55C681.846 371.855 681.458 371.219 680.952 370.684C680.446 370.149 679.834 369.726 679.154 369.443C678.474 369.16 677.742 369.023 677.005 369.042C676.269 369.06 675.545 369.233 674.88 369.55C670.95 371.55 669.88 379.55 670.57 383.39C670.57 383.73 672.11 388.9 672.17 388.85L672.25 388.8C672.08 390.05 671.91 391.39 671.75 392.85C671.48 395.56 671.2 398.63 671.12 401.99C671.002 405.609 671.089 409.231 671.38 412.84C671.688 416.892 672.357 420.908 673.38 424.84L673.43 424.98C672.73 423.89 670.68 420.89 670.5 420.68C667.91 417.68 661.16 413.44 657.09 415.17C656.422 415.476 655.826 415.92 655.34 416.472C654.855 417.024 654.491 417.671 654.272 418.373C654.053 419.075 653.985 419.814 654.07 420.544C654.156 421.274 654.395 421.978 654.77 422.61C656.28 425.35 659.88 426.7 662.77 427.13C666.06 427.61 672.99 425.6 673.54 425.43C674.682 429.395 676.085 433.28 677.74 437.06C678.74 439.27 679.74 441.47 680.74 443.65C680.1 442.72 679.53 441.9 679.44 441.8C676.85 438.8 670.1 434.55 666.03 436.28C665.362 436.586 664.766 437.03 664.28 437.582C663.795 438.134 663.431 438.781 663.212 439.483C662.993 440.185 662.925 440.924 663.01 441.654C663.096 442.384 663.335 443.088 663.71 443.72C665.21 446.46 668.82 447.81 671.71 448.24C674.6 448.67 680.61 447.08 682.18 446.63C682.6 447.47 683 448.3 683.42 449.14C685.42 453.14 687.42 457.14 689.31 461.08C689.97 462.47 690.56 463.87 691.16 465.27C690.6 464.45 690.16 463.76 690.03 463.66C687.45 460.66 680.7 456.42 676.63 458.15C675.961 458.455 675.364 458.898 674.877 459.45C674.391 460.001 674.026 460.649 673.807 461.351C673.588 462.054 673.52 462.794 673.607 463.524C673.693 464.255 673.933 464.959 674.31 465.59C675.81 468.33 679.41 469.68 682.31 470.11C685.21 470.54 690.64 469.11 692.5 468.58C693.07 470.03 693.65 471.48 694.14 472.91C694.45 473.91 694.82 474.82 695.08 475.83C695.34 476.84 695.63 477.83 695.9 478.77C696.35 480.66 696.83 482.61 697.23 484.46C697.51 485.75 697.76 486.99 698.02 488.23C697.38 486.83 696.02 484.12 695.94 483.91C693.84 480.56 687.81 475.33 683.52 476.43C682.813 476.63 682.156 476.978 681.592 477.449C681.027 477.92 680.569 478.506 680.246 479.166C679.924 479.827 679.744 480.548 679.719 481.282C679.693 482.017 679.823 482.749 680.1 483.43C681.17 486.36 684.53 488.24 687.35 489.11C690.45 490.06 697.35 489.19 698.19 489.11C698.61 491.17 698.99 493.17 699.32 495.11C700.47 501.68 701.19 507.2 701.64 511.06C701.71 511.74 701.78 512.35 701.84 512.93H688.59L692.87 596.47C693.041 599.523 694.37 602.396 696.588 604.501C698.805 606.607 701.742 607.787 704.8 607.8C707.86 607.799 710.803 606.623 713.022 604.514C715.24 602.406 716.564 599.526 716.72 596.47L721 512.86H708.6L708.87 512.29C710.57 508.75 712.93 503.65 715.48 497.41C716.29 495.41 717.12 493.33 717.95 491.14C718.78 491.32 725.59 492.7 728.77 491.98C731.64 491.33 735.13 489.7 736.42 486.86C736.746 486.201 736.929 485.48 736.958 484.746C736.987 484.011 736.862 483.279 736.589 482.596C736.316 481.913 735.903 481.295 735.376 480.782C734.849 480.27 734.22 479.874 733.53 479.62C729.33 478.21 722.93 482.98 720.59 486.16C720.45 486.34 719.17 488.55 718.39 489.95C718.73 489.05 719.06 488.19 719.39 487.26C720.06 485.44 720.68 483.6 721.39 481.62C721.68 480.62 721.98 479.68 722.27 478.69C722.56 477.7 722.79 476.69 723.06 475.63C723.63 473.23 724.06 470.78 724.5 468.3C726.1 468.88 731.81 470.86 734.76 470.66C737.71 470.46 741.4 469.37 743.1 466.75C743.523 466.149 743.815 465.466 743.956 464.744C744.097 464.023 744.085 463.28 743.92 462.564C743.755 461.848 743.44 461.175 742.998 460.588C742.555 460.002 741.993 459.515 741.35 459.16C737.41 457.16 730.35 460.87 727.56 463.66C727.39 463.83 725.56 466.06 724.65 467.3C724.88 465.8 725.12 464.3 725.31 462.79C725.86 458.41 726.31 453.95 726.7 449.5C726.84 448.14 726.98 446.79 727.13 445.43C727.69 445.64 734.43 448.15 737.74 447.92C740.68 447.71 744.38 446.63 746.08 444.01C746.501 443.408 746.791 442.724 746.931 442.003C747.07 441.281 747.057 440.539 746.891 439.823C746.725 439.107 746.41 438.434 745.967 437.848C745.524 437.262 744.963 436.775 744.32 436.42C740.39 434.42 733.32 438.13 730.54 440.92C730.33 441.13 727.77 444.34 727.15 445.18C727.47 442.18 727.81 439.18 728.27 436.3C728.865 432.352 729.716 428.447 730.82 424.61C731.08 424.71 738.1 427.36 741.49 427.12C744.43 426.92 748.13 425.84 749.83 423.22C750.251 422.618 750.541 421.934 750.681 421.213C750.82 420.491 750.807 419.749 750.641 419.033C750.475 418.317 750.16 417.644 749.717 417.058C749.274 416.472 748.713 415.985 748.07 415.63C744.14 413.63 737.07 417.34 734.29 420.13C734.07 420.34 731.29 423.8 730.86 424.46C730.92 424.23 730.97 424 731.04 423.78C732.251 419.964 733.797 416.263 735.66 412.72C736.66 410.72 737.74 408.93 738.83 407.17C740.08 407.8 745.83 410.6 748.93 410.73C752.03 410.86 755.67 410.17 757.65 407.73C758.135 407.177 758.498 406.529 758.716 405.827C758.934 405.125 759.002 404.385 758.915 403.655C758.828 402.925 758.589 402.221 758.213 401.59C757.836 400.959 757.331 400.413 756.73 399.99C753.05 397.54 745.63 400.49 742.54 402.99C742.37 403.12 740.82 404.67 739.7 405.82C740.2 405.04 740.7 404.22 741.2 403.48C743.05 400.69 744.91 398.25 746.58 396.1C747.58 394.89 748.44 393.81 749.28 392.81C750.84 392.81 757.1 392.6 759.83 391.31C762.56 390.02 765.56 387.72 766.2 384.66C766.38 383.943 766.405 383.196 766.275 382.468C766.144 381.741 765.861 381.049 765.443 380.439C765.025 379.83 764.482 379.316 763.851 378.931C763.219 378.547 762.514 378.301 761.78 378.21ZM713.07 496.39C710.41 502.51 707.96 507.51 706.21 510.98L705.21 512.86H704.91C704.83 512.19 704.73 511.45 704.62 510.61C704.08 506.72 703.24 501.17 701.92 494.56C701.51 492.47 701.03 490.24 700.52 487.97C702.589 487.136 704.609 486.184 706.57 485.12C708.83 487.57 714.64 490.44 715.39 490.81C714.63 492.75 713.84 494.63 713.07 496.39Z" fill="#2F2E41"/>
<path d="M738.6 406.35C738.67 406.35 740.01 401.19 740.06 400.85C740.6 396.94 739.35 389.06 735.37 387.13C734.7 386.829 733.973 386.672 733.238 386.67C732.503 386.669 731.776 386.822 731.104 387.12C730.432 387.418 729.831 387.855 729.339 388.401C728.847 388.947 728.476 389.591 728.25 390.29C727.18 393.22 728.53 396.82 730.13 399.29C732 402.21 738.59 406.35 738.6 406.35Z" fill="#2F2E41"/>
</svg>
