<svg width="619" height="622" viewBox="0 0 619 622" fill="none" xmlns="http://www.w3.org/2000/svg">
<g opacity="0.48">
<path fill-rule="evenodd" clip-rule="evenodd" d="M327.898 15.2477C328.49 15.7898 328.842 16.5447 328.877 17.3465C328.912 18.1482 328.627 18.9311 328.085 19.5229L317.865 30.679L329.022 40.8989C329.613 41.441 329.965 42.1959 330.001 42.9977C330.036 43.7994 329.751 44.5823 329.209 45.1741C328.667 45.7658 327.912 46.118 327.11 46.1531C326.308 46.1882 325.525 45.9034 324.934 45.3613L313.777 35.1415L303.558 46.2977C303.016 46.8894 302.261 47.2416 301.459 47.2767C300.657 47.3119 299.874 47.027 299.282 46.4849C298.691 45.9428 298.338 45.1879 298.303 44.3861C298.268 43.5844 298.553 42.8015 299.095 42.2097L309.315 31.0536L298.159 20.8337C297.567 20.2917 297.215 19.5367 297.18 18.7349C297.145 17.9332 297.429 17.1503 297.972 16.5585C298.514 15.9668 299.269 15.6146 300.07 15.5795C300.872 15.5444 301.655 15.8292 302.247 16.3713L313.403 26.5911L323.623 15.4349C324.165 14.8432 324.92 14.491 325.722 14.4559C326.523 14.4208 327.306 14.7056 327.898 15.2477V15.2477Z" fill="#278BA0"/>
<path fill-rule="evenodd" clip-rule="evenodd" d="M382.967 65.6945C383.559 66.2366 383.911 66.9915 383.946 67.7933C383.981 68.595 383.696 69.3779 383.154 69.9697L372.934 81.1258L384.09 91.3457C384.682 91.8878 385.034 92.6427 385.069 93.4445C385.105 94.2462 384.82 95.0291 384.278 95.6209C383.736 96.2126 382.981 96.5648 382.179 96.5999C381.377 96.6351 380.594 96.3502 380.002 95.8081L368.846 85.5883L358.626 96.7445C358.084 97.3362 357.329 97.6884 356.528 97.7235C355.726 97.7587 354.943 97.4738 354.351 96.9317C353.76 96.3897 353.407 95.6347 353.372 94.8329C353.337 94.0312 353.622 93.2483 354.164 92.6566L364.384 81.5004L353.228 71.2806C352.636 70.7385 352.284 69.9835 352.249 69.1817C352.213 68.38 352.498 67.5971 353.04 67.0054C353.582 66.4136 354.337 66.0614 355.139 66.0263C355.941 65.9912 356.724 66.276 357.316 66.8181L368.472 77.0379L378.692 65.8817C379.234 65.29 379.989 64.9378 380.79 64.9027C381.592 64.8676 382.375 65.1524 382.967 65.6945V65.6945Z" fill="#278BA0"/>
<path fill-rule="evenodd" clip-rule="evenodd" d="M438.035 116.141C438.627 116.683 438.979 117.438 439.014 118.24C439.05 119.042 438.765 119.825 438.223 120.416L428.003 131.573L439.159 141.792C439.751 142.335 440.103 143.09 440.138 143.891C440.173 144.693 439.888 145.476 439.346 146.068C438.804 146.659 438.049 147.012 437.247 147.047C436.446 147.082 435.663 146.797 435.071 146.255L423.915 136.035L413.695 147.191C413.153 147.783 412.398 148.135 411.596 148.17C410.794 148.205 410.012 147.921 409.42 147.379C408.828 146.836 408.476 146.081 408.441 145.28C408.406 144.478 408.691 143.695 409.233 143.103L419.452 131.947L408.296 121.727C407.704 121.185 407.352 120.43 407.317 119.629C407.282 118.827 407.567 118.044 408.109 117.452C408.651 116.86 409.406 116.508 410.208 116.473C411.01 116.438 411.792 116.723 412.384 117.265L423.54 127.485L433.76 116.329C434.302 115.737 435.057 115.385 435.859 115.349C436.661 115.314 437.444 115.599 438.035 116.141V116.141Z" fill="#278BA0"/>
<path fill-rule="evenodd" clip-rule="evenodd" d="M493.104 166.588C493.696 167.13 494.048 167.885 494.083 168.687C494.118 169.489 493.834 170.272 493.292 170.863L483.072 182.019L494.228 192.239C494.82 192.781 495.172 193.536 495.207 194.338C495.242 195.14 494.957 195.923 494.415 196.514C493.873 197.106 493.118 197.458 492.316 197.494C491.515 197.529 490.732 197.244 490.14 196.702L478.984 186.482L468.764 197.638C468.222 198.23 467.467 198.582 466.665 198.617C465.863 198.652 465.08 198.367 464.489 197.825C463.897 197.283 463.545 196.528 463.51 195.727C463.475 194.925 463.759 194.142 464.301 193.55L474.521 182.394L463.365 172.174C462.773 171.632 462.421 170.877 462.386 170.075C462.351 169.274 462.636 168.491 463.178 167.899C463.72 167.307 464.475 166.955 465.277 166.92C466.078 166.885 466.861 167.17 467.453 167.712L478.609 177.932L488.829 166.775C489.371 166.184 490.126 165.831 490.928 165.796C491.73 165.761 492.512 166.046 493.104 166.588V166.588Z" fill="#278BA0"/>
<path fill-rule="evenodd" clip-rule="evenodd" d="M548.173 217.035C548.765 217.577 549.117 218.332 549.152 219.134C549.187 219.935 548.902 220.718 548.36 221.31L538.14 232.466L549.296 242.686C549.888 243.228 550.24 243.983 550.276 244.785C550.311 245.587 550.026 246.37 549.484 246.961C548.942 247.553 548.187 247.905 547.385 247.94C546.583 247.975 545.8 247.691 545.209 247.149L534.052 236.929L523.833 248.085C523.29 248.677 522.535 249.029 521.734 249.064C520.932 249.099 520.149 248.814 519.557 248.272C518.966 247.73 518.613 246.975 518.578 246.173C518.543 245.372 518.828 244.589 519.37 243.997L529.59 232.841L518.434 222.621C517.842 222.079 517.49 221.324 517.455 220.522C517.42 219.72 517.704 218.938 518.246 218.346C518.789 217.754 519.543 217.402 520.345 217.367C521.147 217.332 521.93 217.616 522.522 218.159L533.678 228.378L543.898 217.222C544.44 216.63 545.195 216.278 545.996 216.243C546.798 216.208 547.581 216.493 548.173 217.035V217.035Z" fill="#278BA0"/>
<path fill-rule="evenodd" clip-rule="evenodd" d="M603.242 267.482C603.833 268.024 604.186 268.779 604.221 269.581C604.256 270.382 603.971 271.165 603.429 271.757L593.209 282.913L604.365 293.133C604.957 293.675 605.309 294.43 605.344 295.232C605.379 296.033 605.095 296.816 604.553 297.408C604.01 298 603.255 298.352 602.454 298.387C601.652 298.422 600.869 298.137 600.277 297.595L589.121 287.376L578.901 298.532C578.359 299.123 577.604 299.476 576.803 299.511C576.001 299.546 575.218 299.261 574.626 298.719C574.034 298.177 573.682 297.422 573.647 296.62C573.612 295.818 573.897 295.036 574.439 294.444L584.659 283.288L573.503 273.068C572.911 272.526 572.559 271.771 572.523 270.969C572.488 270.167 572.773 269.384 573.315 268.793C573.857 268.201 574.612 267.849 575.414 267.814C576.216 267.778 576.999 268.063 577.59 268.605L588.747 278.825L598.966 267.669C599.509 267.077 600.264 266.725 601.065 266.69C601.867 266.655 602.65 266.94 603.242 267.482V267.482Z" fill="#278BA0"/>
<path fill-rule="evenodd" clip-rule="evenodd" d="M275.712 72.2153C276.303 72.7574 276.656 73.5124 276.691 74.3141C276.726 75.1159 276.441 75.8988 275.899 76.4905L265.679 87.6467L276.835 97.8665C277.427 98.4086 277.779 99.1636 277.814 99.9653C277.849 100.767 277.565 101.55 277.023 102.142C276.48 102.733 275.725 103.086 274.924 103.121C274.122 103.156 273.339 102.871 272.747 102.329L261.591 92.1092L251.371 103.265C250.829 103.857 250.074 104.209 249.273 104.244C248.471 104.28 247.688 103.995 247.096 103.453C246.504 102.911 246.152 102.156 246.117 101.354C246.082 100.552 246.367 99.7692 246.909 99.1774L257.129 88.0212L245.973 77.8014C245.381 77.2593 245.029 76.5043 244.993 75.7026C244.958 74.9008 245.243 74.118 245.785 73.5262C246.327 72.9344 247.082 72.5823 247.884 72.5471C248.686 72.512 249.469 72.7968 250.06 73.3389L261.217 83.5588L271.436 72.4026C271.979 71.8108 272.734 71.4587 273.535 71.4235C274.337 71.3884 275.12 71.6732 275.712 72.2153V72.2153Z" fill="#278BA0"/>
<path fill-rule="evenodd" clip-rule="evenodd" d="M330.78 122.662C331.372 123.204 331.724 123.959 331.759 124.761C331.794 125.563 331.51 126.346 330.968 126.937L320.748 138.093L331.904 148.313C332.496 148.855 332.848 149.61 332.883 150.412C332.918 151.214 332.633 151.997 332.091 152.589C331.549 153.18 330.794 153.532 329.992 153.568C329.191 153.603 328.408 153.318 327.816 152.776L316.66 142.556L306.44 153.712C305.898 154.304 305.143 154.656 304.341 154.691C303.539 154.726 302.756 154.441 302.165 153.899C301.573 153.357 301.221 152.602 301.186 151.801C301.151 150.999 301.435 150.216 301.977 149.624L312.197 138.468L301.041 128.248C300.449 127.706 300.097 126.951 300.062 126.149C300.027 125.348 300.312 124.565 300.854 123.973C301.396 123.381 302.151 123.029 302.953 122.994C303.754 122.959 304.537 123.244 305.129 123.786L316.285 134.006L326.505 122.849C327.047 122.258 327.802 121.905 328.604 121.87C329.406 121.835 330.188 122.12 330.78 122.662V122.662Z" fill="#278BA0"/>
<path fill-rule="evenodd" clip-rule="evenodd" d="M385.849 173.109C386.441 173.651 386.793 174.406 386.828 175.208C386.863 176.01 386.578 176.792 386.036 177.384L375.817 188.54L386.973 198.76C387.564 199.302 387.917 200.057 387.952 200.859C387.987 201.661 387.702 202.444 387.16 203.035C386.618 203.627 385.863 203.979 385.061 204.014C384.259 204.05 383.477 203.765 382.885 203.223L371.729 193.003L361.509 204.159C360.967 204.751 360.212 205.103 359.41 205.138C358.608 205.173 357.825 204.888 357.234 204.346C356.642 203.804 356.29 203.049 356.255 202.247C356.219 201.446 356.504 200.663 357.046 200.071L367.266 188.915L356.11 178.695C355.518 178.153 355.166 177.398 355.131 176.596C355.096 175.794 355.381 175.012 355.923 174.42C356.465 173.828 357.22 173.476 358.022 173.441C358.823 173.406 359.606 173.69 360.198 174.233L371.354 184.452L381.574 173.296C382.116 172.704 382.871 172.352 383.673 172.317C384.474 172.282 385.257 172.567 385.849 173.109V173.109Z" fill="#278BA0"/>
<path fill-rule="evenodd" clip-rule="evenodd" d="M440.918 223.556C441.509 224.098 441.862 224.853 441.897 225.655C441.932 226.456 441.647 227.239 441.105 227.831L430.885 238.987L442.041 249.207C442.633 249.749 442.985 250.504 443.02 251.306C443.055 252.108 442.771 252.89 442.229 253.482C441.686 254.074 440.932 254.426 440.13 254.461C439.328 254.496 438.545 254.212 437.953 253.669L426.797 243.45L416.577 254.606C416.035 255.198 415.28 255.55 414.479 255.585C413.677 255.62 412.894 255.335 412.302 254.793C411.71 254.251 411.358 253.496 411.323 252.694C411.288 251.892 411.573 251.11 412.115 250.518L422.335 239.362L411.179 229.142C410.587 228.6 410.235 227.845 410.2 227.043C410.164 226.241 410.449 225.458 410.991 224.867C411.533 224.275 412.288 223.923 413.09 223.888C413.892 223.852 414.675 224.137 415.267 224.679L426.423 234.899L436.643 223.743C437.185 223.151 437.94 222.799 438.741 222.764C439.543 222.729 440.326 223.014 440.918 223.556V223.556Z" fill="#278BA0"/>
<path fill-rule="evenodd" clip-rule="evenodd" d="M495.987 274.003C496.578 274.545 496.93 275.3 496.966 276.101C497.001 276.903 496.716 277.686 496.174 278.278L485.954 289.434L497.11 299.654C497.702 300.196 498.054 300.951 498.089 301.753C498.124 302.554 497.84 303.337 497.297 303.929C496.755 304.521 496 304.873 495.199 304.908C494.397 304.943 493.614 304.658 493.022 304.116L481.866 293.896L471.646 305.053C471.104 305.644 470.349 305.997 469.547 306.032C468.746 306.067 467.963 305.782 467.371 305.24C466.779 304.698 466.427 303.943 466.392 303.141C466.357 302.339 466.642 301.556 467.184 300.965L477.404 289.808L466.247 279.589C465.656 279.047 465.303 278.292 465.268 277.49C465.233 276.688 465.518 275.905 466.06 275.313C466.602 274.722 467.357 274.37 468.159 274.334C468.961 274.299 469.744 274.584 470.335 275.126L481.492 285.346L491.711 274.19C492.253 273.598 493.008 273.246 493.81 273.211C494.612 273.176 495.395 273.46 495.987 274.003V274.003Z" fill="#278BA0"/>
<path fill-rule="evenodd" clip-rule="evenodd" d="M551.055 324.449C551.647 324.991 551.999 325.746 552.034 326.548C552.07 327.35 551.785 328.133 551.243 328.725L541.023 339.881L552.179 350.101C552.771 350.643 553.123 351.398 553.158 352.199C553.193 353.001 552.908 353.784 552.366 354.376C551.824 354.968 551.069 355.32 550.267 355.355C549.466 355.39 548.683 355.105 548.091 354.563L536.935 344.343L526.715 355.499C526.173 356.091 525.418 356.443 524.616 356.478C523.815 356.514 523.032 356.229 522.44 355.687C521.848 355.145 521.496 354.39 521.461 353.588C521.426 352.786 521.711 352.003 522.253 351.411L532.472 340.255L521.316 330.035C520.725 329.493 520.372 328.738 520.337 327.937C520.302 327.135 520.587 326.352 521.129 325.76C521.671 325.168 522.426 324.816 523.228 324.781C524.03 324.746 524.812 325.031 525.404 325.573L536.56 335.793L546.78 324.637C547.322 324.045 548.077 323.693 548.879 323.658C549.681 323.622 550.464 323.907 551.055 324.449V324.449Z" fill="#278BA0"/>
<path fill-rule="evenodd" clip-rule="evenodd" d="M207.869 146.273C208.461 146.815 208.813 147.57 208.848 148.372C208.884 149.174 208.599 149.957 208.057 150.549L197.837 161.705L208.993 171.924C209.585 172.467 209.937 173.222 209.972 174.023C210.007 174.825 209.722 175.608 209.18 176.2C208.638 176.791 207.883 177.144 207.081 177.179C206.28 177.214 205.497 176.929 204.905 176.387L193.749 166.167L183.529 177.323C182.987 177.915 182.232 178.267 181.43 178.302C180.628 178.337 179.846 178.053 179.254 177.511C178.662 176.968 178.31 176.214 178.275 175.412C178.24 174.61 178.524 173.827 179.067 173.235L189.286 162.079L178.13 151.859C177.538 151.317 177.186 150.562 177.151 149.761C177.116 148.959 177.401 148.176 177.943 147.584C178.485 146.992 179.24 146.64 180.042 146.605C180.844 146.57 181.626 146.855 182.218 147.397L193.374 157.617L203.594 146.461C204.136 145.869 204.891 145.517 205.693 145.482C206.495 145.446 207.278 145.731 207.869 146.273V146.273Z" fill="#278BA0"/>
<path fill-rule="evenodd" clip-rule="evenodd" d="M262.938 196.72C263.53 197.262 263.882 198.017 263.917 198.819C263.952 199.621 263.667 200.404 263.125 200.995L252.905 212.151L264.062 222.371C264.653 222.913 265.006 223.668 265.041 224.47C265.076 225.272 264.791 226.055 264.249 226.647C263.707 227.238 262.952 227.59 262.15 227.626C261.348 227.661 260.565 227.376 259.974 226.834L248.817 216.614L238.598 227.77C238.056 228.362 237.301 228.714 236.499 228.749C235.697 228.784 234.914 228.499 234.322 227.957C233.731 227.415 233.379 226.66 233.343 225.859C233.308 225.057 233.593 224.274 234.135 223.682L244.355 212.526L233.199 202.306C232.607 201.764 232.255 201.009 232.22 200.207C232.185 199.406 232.469 198.623 233.012 198.031C233.554 197.439 234.309 197.087 235.11 197.052C235.912 197.017 236.695 197.302 237.287 197.844L248.443 208.064L258.663 196.907C259.205 196.316 259.96 195.963 260.762 195.928C261.563 195.893 262.346 196.178 262.938 196.72V196.72Z" fill="#278BA0"/>
<path fill-rule="evenodd" clip-rule="evenodd" d="M318.007 247.167C318.599 247.709 318.951 248.464 318.986 249.266C319.021 250.067 318.736 250.85 318.194 251.442L307.974 262.598L319.13 272.818C319.722 273.36 320.074 274.115 320.109 274.917C320.145 275.719 319.86 276.502 319.318 277.093C318.776 277.685 318.021 278.037 317.219 278.072C316.417 278.107 315.634 277.823 315.043 277.281L303.886 267.061L293.667 278.217C293.124 278.809 292.369 279.161 291.568 279.196C290.766 279.231 289.983 278.946 289.391 278.404C288.8 277.862 288.447 277.107 288.412 276.305C288.377 275.504 288.662 274.721 289.204 274.129L299.424 262.973L288.268 252.753C287.676 252.211 287.324 251.456 287.289 250.654C287.254 249.852 287.538 249.07 288.08 248.478C288.623 247.886 289.377 247.534 290.179 247.499C290.981 247.464 291.764 247.748 292.356 248.291L303.512 258.51L313.732 247.354C314.274 246.762 315.029 246.41 315.83 246.375C316.632 246.34 317.415 246.625 318.007 247.167V247.167Z" fill="#278BA0"/>
<path fill-rule="evenodd" clip-rule="evenodd" d="M373.076 297.614C373.667 298.156 374.02 298.911 374.055 299.713C374.09 300.514 373.805 301.297 373.263 301.889L363.043 313.045L374.199 323.265C374.791 323.807 375.143 324.562 375.178 325.364C375.213 326.165 374.929 326.948 374.387 327.54C373.844 328.132 373.089 328.484 372.288 328.519C371.486 328.554 370.703 328.269 370.111 327.727L358.955 317.508L348.735 328.664C348.193 329.255 347.438 329.608 346.637 329.643C345.835 329.678 345.052 329.393 344.46 328.851C343.868 328.309 343.516 327.554 343.481 326.752C343.446 325.95 343.731 325.168 344.273 324.576L354.493 313.42L343.337 303.2C342.745 302.658 342.393 301.903 342.357 301.101C342.322 300.299 342.607 299.516 343.149 298.925C343.691 298.333 344.446 297.981 345.248 297.946C346.05 297.91 346.833 298.195 347.424 298.737L358.581 308.957L368.8 297.801C369.343 297.209 370.098 296.857 370.899 296.822C371.701 296.787 372.484 297.072 373.076 297.614V297.614Z" fill="#278BA0"/>
<path fill-rule="evenodd" clip-rule="evenodd" d="M428.144 348.061C428.736 348.603 429.088 349.358 429.123 350.159C429.158 350.961 428.874 351.744 428.332 352.336L418.112 363.492L429.268 373.712C429.86 374.254 430.212 375.009 430.247 375.811C430.282 376.612 429.997 377.395 429.455 377.987C428.913 378.579 428.158 378.931 427.356 378.966C426.555 379.001 425.772 378.716 425.18 378.174L414.024 367.954L403.804 379.111C403.262 379.702 402.507 380.054 401.705 380.09C400.903 380.125 400.121 379.84 399.529 379.298C398.937 378.756 398.585 378.001 398.55 377.199C398.515 376.397 398.799 375.614 399.341 375.023L409.561 363.866L398.405 353.647C397.813 353.105 397.461 352.35 397.426 351.548C397.391 350.746 397.676 349.963 398.218 349.371C398.76 348.78 399.515 348.427 400.317 348.392C401.118 348.357 401.901 348.642 402.493 349.184L413.649 359.404L423.869 348.248C424.411 347.656 425.166 347.304 425.968 347.269C426.77 347.234 427.553 347.518 428.144 348.061V348.061Z" fill="#278BA0"/>
<path fill-rule="evenodd" clip-rule="evenodd" d="M483.213 398.507C483.805 399.049 484.157 399.804 484.192 400.606C484.227 401.408 483.942 402.191 483.4 402.783L473.181 413.939L484.337 424.159C484.928 424.701 485.281 425.456 485.316 426.257C485.351 427.059 485.066 427.842 484.524 428.434C483.982 429.025 483.227 429.378 482.425 429.413C481.623 429.448 480.841 429.163 480.249 428.621L469.093 418.401L458.873 429.557C458.331 430.149 457.576 430.501 456.774 430.536C455.972 430.572 455.189 430.287 454.598 429.745C454.006 429.203 453.654 428.448 453.619 427.646C453.583 426.844 453.868 426.061 454.41 425.469L464.63 414.313L453.474 404.093C452.882 403.551 452.53 402.796 452.495 401.995C452.46 401.193 452.745 400.41 453.287 399.818C453.829 399.226 454.584 398.874 455.386 398.839C456.187 398.804 456.97 399.089 457.562 399.631L468.718 409.851L478.938 398.695C479.48 398.103 480.235 397.751 481.037 397.716C481.838 397.68 482.621 397.965 483.213 398.507V398.507Z" fill="#278BA0"/>
<path fill-rule="evenodd" clip-rule="evenodd" d="M146.985 212.736C147.577 213.278 147.929 214.033 147.964 214.834C148 215.636 147.715 216.419 147.173 217.011L136.953 228.167L148.109 238.387C148.701 238.929 149.053 239.684 149.088 240.486C149.123 241.287 148.838 242.07 148.296 242.662C147.754 243.254 146.999 243.606 146.197 243.641C145.396 243.676 144.613 243.391 144.021 242.849L132.865 232.629L122.645 243.786C122.103 244.377 121.348 244.73 120.546 244.765C119.744 244.8 118.962 244.515 118.37 243.973C117.778 243.431 117.426 242.676 117.391 241.874C117.356 241.072 117.64 240.289 118.183 239.698L128.402 228.541L117.246 218.322C116.654 217.78 116.302 217.025 116.267 216.223C116.232 215.421 116.517 214.638 117.059 214.046C117.601 213.455 118.356 213.103 119.158 213.067C119.96 213.032 120.742 213.317 121.334 213.859L132.49 224.079L142.71 212.923C143.252 212.331 144.007 211.979 144.809 211.944C145.611 211.909 146.394 212.193 146.985 212.736V212.736Z" fill="#278BA0"/>
<path fill-rule="evenodd" clip-rule="evenodd" d="M202.054 263.182C202.646 263.724 202.998 264.479 203.033 265.281C203.068 266.083 202.783 266.866 202.241 267.458L192.021 278.614L203.178 288.834C203.769 289.376 204.121 290.131 204.157 290.932C204.192 291.734 203.907 292.517 203.365 293.109C202.823 293.701 202.068 294.053 201.266 294.088C200.464 294.123 199.681 293.838 199.09 293.296L187.933 283.076L177.714 294.232C177.172 294.824 176.417 295.176 175.615 295.211C174.813 295.247 174.03 294.962 173.438 294.42C172.847 293.878 172.494 293.123 172.459 292.321C172.424 291.519 172.709 290.736 173.251 290.144L183.471 278.988L172.315 268.768C171.723 268.226 171.371 267.471 171.336 266.67C171.301 265.868 171.585 265.085 172.128 264.493C172.67 263.901 173.425 263.549 174.226 263.514C175.028 263.479 175.811 263.764 176.403 264.306L187.559 274.526L197.779 263.37C198.321 262.778 199.076 262.426 199.878 262.391C200.679 262.355 201.462 262.64 202.054 263.182V263.182Z" fill="#278BA0"/>
<path fill-rule="evenodd" clip-rule="evenodd" d="M257.123 313.629C257.715 314.171 258.067 314.926 258.102 315.728C258.137 316.53 257.852 317.313 257.31 317.904L247.09 329.061L258.246 339.28C258.838 339.822 259.19 340.577 259.225 341.379C259.261 342.181 258.976 342.964 258.434 343.556C257.892 344.147 257.137 344.5 256.335 344.535C255.533 344.57 254.75 344.285 254.158 343.743L243.002 333.523L232.782 344.679C232.24 345.271 231.485 345.623 230.684 345.658C229.882 345.693 229.099 345.409 228.507 344.866C227.916 344.324 227.563 343.569 227.528 342.768C227.493 341.966 227.778 341.183 228.32 340.591L238.54 329.435L227.384 319.215C226.792 318.673 226.44 317.918 226.405 317.116C226.369 316.315 226.654 315.532 227.196 314.94C227.738 314.348 228.493 313.996 229.295 313.961C230.097 313.926 230.88 314.211 231.472 314.753L242.628 324.973L252.848 313.816C253.39 313.225 254.145 312.873 254.946 312.837C255.748 312.802 256.531 313.087 257.123 313.629V313.629Z" fill="#278BA0"/>
<path fill-rule="evenodd" clip-rule="evenodd" d="M312.191 364.076C312.783 364.618 313.135 365.373 313.17 366.175C313.206 366.977 312.921 367.759 312.379 368.351L302.159 379.507L313.315 389.727C313.907 390.269 314.259 391.024 314.294 391.826C314.329 392.628 314.044 393.411 313.502 394.002C312.96 394.594 312.205 394.946 311.403 394.981C310.602 395.017 309.819 394.732 309.227 394.19L298.071 383.97L287.851 395.126C287.309 395.718 286.554 396.07 285.752 396.105C284.951 396.14 284.168 395.855 283.576 395.313C282.984 394.771 282.632 394.016 282.597 393.214C282.562 392.413 282.847 391.63 283.389 391.038L293.608 379.882L282.452 369.662C281.861 369.12 281.508 368.365 281.473 367.563C281.438 366.762 281.723 365.979 282.265 365.387C282.807 364.795 283.562 364.443 284.364 364.408C285.166 364.373 285.948 364.658 286.54 365.2L297.696 375.419L307.916 364.263C308.458 363.672 309.213 363.319 310.015 363.284C310.817 363.249 311.6 363.534 312.191 364.076V364.076Z" fill="#278BA0"/>
<path fill-rule="evenodd" clip-rule="evenodd" d="M367.26 414.523C367.852 415.065 368.204 415.82 368.239 416.622C368.274 417.423 367.99 418.206 367.448 418.798L357.228 429.954L368.384 440.174C368.976 440.716 369.328 441.471 369.363 442.273C369.398 443.075 369.113 443.857 368.571 444.449C368.029 445.041 367.274 445.393 366.472 445.428C365.671 445.463 364.888 445.179 364.296 444.636L353.14 434.417L342.92 445.573C342.378 446.165 341.623 446.517 340.821 446.552C340.019 446.587 339.236 446.302 338.645 445.76C338.053 445.218 337.701 444.463 337.666 443.661C337.631 442.86 337.915 442.077 338.457 441.485L348.677 430.329L337.521 420.109C336.929 419.567 336.577 418.812 336.542 418.01C336.507 417.208 336.792 416.425 337.334 415.834C337.876 415.242 338.631 414.89 339.433 414.855C340.234 414.82 341.017 415.104 341.609 415.646L352.765 425.866L362.985 414.71C363.527 414.118 364.282 413.766 365.084 413.731C365.886 413.696 366.668 413.981 367.26 414.523V414.523Z" fill="#278BA0"/>
<path fill-rule="evenodd" clip-rule="evenodd" d="M422.329 464.97C422.921 465.512 423.273 466.267 423.308 467.068C423.343 467.87 423.058 468.653 422.516 469.245L412.296 480.401L423.452 490.621C424.044 491.163 424.396 491.918 424.432 492.72C424.467 493.521 424.182 494.304 423.64 494.896C423.098 495.488 422.343 495.84 421.541 495.875C420.739 495.91 419.956 495.625 419.365 495.083L408.208 484.863L397.989 496.02C397.446 496.611 396.691 496.964 395.89 496.999C395.088 497.034 394.305 496.749 393.713 496.207C393.122 495.665 392.769 494.91 392.734 494.108C392.699 493.306 392.984 492.523 393.526 491.932L403.746 480.776L392.59 470.556C391.998 470.014 391.646 469.259 391.611 468.457C391.576 467.655 391.86 466.872 392.402 466.28C392.945 465.689 393.7 465.337 394.501 465.301C395.303 465.266 396.086 465.551 396.678 466.093L407.834 476.313L418.054 465.157C418.596 464.565 419.351 464.213 420.152 464.178C420.954 464.143 421.737 464.428 422.329 464.97V464.97Z" fill="#278BA0"/>
<path fill-rule="evenodd" clip-rule="evenodd" d="M94.7988 269.703C95.3906 270.245 95.7427 271 95.7779 271.802C95.813 272.604 95.5282 273.387 94.9861 273.978L84.7662 285.135L95.9224 295.354C96.5142 295.897 96.8664 296.651 96.9015 297.453C96.9366 298.255 96.6518 299.038 96.1097 299.63C95.5676 300.221 94.8126 300.574 94.0109 300.609C93.2091 300.644 92.4262 300.359 91.8345 299.817L80.6783 289.597L70.4585 300.753C69.9164 301.345 69.1614 301.697 68.3597 301.732C67.5579 301.767 66.775 301.483 66.1833 300.941C65.5915 300.398 65.2393 299.643 65.2042 298.842C65.1691 298.04 65.4539 297.257 65.996 296.665L76.2158 285.509L65.0597 275.289C64.4679 274.747 64.1157 273.992 64.0806 273.19C64.0455 272.389 64.3303 271.606 64.8724 271.014C65.4145 270.422 66.1695 270.07 66.9712 270.035C67.773 270 68.5558 270.285 69.1476 270.827L80.3038 281.047L90.5236 269.89C91.0657 269.299 91.8207 268.947 92.6224 268.911C93.4242 268.876 94.2071 269.161 94.7988 269.703V269.703Z" fill="#278BA0"/>
<path fill-rule="evenodd" clip-rule="evenodd" d="M149.868 320.15C150.459 320.692 150.812 321.447 150.847 322.249C150.882 323.051 150.597 323.833 150.055 324.425L139.835 335.581L150.991 345.801C151.583 346.343 151.935 347.098 151.97 347.9C152.005 348.702 151.721 349.485 151.179 350.076C150.636 350.668 149.881 351.02 149.08 351.055C148.278 351.091 147.495 350.806 146.903 350.264L135.747 340.044L125.527 351.2C124.985 351.792 124.23 352.144 123.429 352.179C122.627 352.214 121.844 351.929 121.252 351.387C120.66 350.845 120.308 350.09 120.273 349.289C120.238 348.487 120.523 347.704 121.065 347.112L131.285 335.956L120.129 325.736C119.537 325.194 119.185 324.439 119.149 323.637C119.114 322.836 119.399 322.053 119.941 321.461C120.483 320.869 121.238 320.517 122.04 320.482C122.842 320.447 123.625 320.732 124.216 321.274L135.373 331.493L145.592 320.337C146.135 319.746 146.89 319.393 147.691 319.358C148.493 319.323 149.276 319.608 149.868 320.15V320.15Z" fill="#278BA0"/>
<path fill-rule="evenodd" clip-rule="evenodd" d="M204.936 370.597C205.528 371.139 205.88 371.894 205.915 372.696C205.95 373.497 205.666 374.28 205.124 374.872L194.904 386.028L206.06 396.248C206.652 396.79 207.004 397.545 207.039 398.347C207.074 399.149 206.789 399.931 206.247 400.523C205.705 401.115 204.95 401.467 204.148 401.502C203.347 401.537 202.564 401.253 201.972 400.711L190.816 390.491L180.596 401.647C180.054 402.239 179.299 402.591 178.497 402.626C177.695 402.661 176.912 402.376 176.321 401.834C175.729 401.292 175.377 400.537 175.342 399.735C175.307 398.934 175.591 398.151 176.133 397.559L186.353 386.403L175.197 376.183C174.605 375.641 174.253 374.886 174.218 374.084C174.183 373.282 174.468 372.499 175.01 371.908C175.552 371.316 176.307 370.964 177.109 370.929C177.91 370.894 178.693 371.178 179.285 371.72L190.441 381.94L200.661 370.784C201.203 370.192 201.958 369.84 202.76 369.805C203.562 369.77 204.345 370.055 204.936 370.597V370.597Z" fill="#278BA0"/>
<path fill-rule="evenodd" clip-rule="evenodd" d="M260.005 421.044C260.597 421.586 260.949 422.341 260.984 423.142C261.019 423.944 260.734 424.727 260.192 425.319L249.973 436.475L261.129 446.695C261.72 447.237 262.073 447.992 262.108 448.794C262.143 449.595 261.858 450.378 261.316 450.97C260.774 451.562 260.019 451.914 259.217 451.949C258.415 451.984 257.633 451.699 257.041 451.157L245.885 440.937L235.665 452.094C235.123 452.685 234.368 453.038 233.566 453.073C232.764 453.108 231.981 452.823 231.39 452.281C230.798 451.739 230.446 450.984 230.411 450.182C230.375 449.38 230.66 448.597 231.202 448.006L241.422 436.85L230.266 426.63C229.674 426.088 229.322 425.333 229.287 424.531C229.252 423.729 229.537 422.946 230.079 422.355C230.621 421.763 231.376 421.411 232.178 421.375C232.979 421.34 233.762 421.625 234.354 422.167L245.51 432.387L255.73 421.231C256.272 420.639 257.027 420.287 257.829 420.252C258.63 420.217 259.413 420.502 260.005 421.044V421.044Z" fill="#278BA0"/>
<path fill-rule="evenodd" clip-rule="evenodd" d="M315.074 471.49C315.666 472.033 316.018 472.788 316.053 473.589C316.088 474.391 315.803 475.174 315.261 475.766L305.041 486.922L316.198 497.142C316.789 497.684 317.142 498.439 317.177 499.24C317.212 500.042 316.927 500.825 316.385 501.417C315.843 502.009 315.088 502.361 314.286 502.396C313.484 502.431 312.701 502.146 312.11 501.604L300.953 491.384L290.734 502.54C290.192 503.132 289.437 503.484 288.635 503.52C287.833 503.555 287.05 503.27 286.458 502.728C285.867 502.186 285.514 501.431 285.479 500.629C285.444 499.827 285.729 499.044 286.271 498.453L296.491 487.296L285.335 477.077C284.743 476.534 284.391 475.779 284.356 474.978C284.321 474.176 284.605 473.393 285.148 472.801C285.69 472.21 286.445 471.857 287.246 471.822C288.048 471.787 288.831 472.072 289.423 472.614L300.579 482.834L310.799 471.678C311.341 471.086 312.096 470.734 312.898 470.699C313.699 470.664 314.482 470.948 315.074 471.49V471.49Z" fill="#278BA0"/>
<path fill-rule="evenodd" clip-rule="evenodd" d="M370.143 521.937C370.734 522.479 371.086 523.234 371.122 524.036C371.157 524.838 370.872 525.621 370.33 526.212L360.11 537.369L371.266 547.588C371.858 548.131 372.21 548.886 372.245 549.687C372.28 550.489 371.996 551.272 371.453 551.864C370.911 552.455 370.156 552.808 369.355 552.843C368.553 552.878 367.77 552.593 367.178 552.051L356.022 541.831L345.802 552.987C345.26 553.579 344.505 553.931 343.703 553.966C342.902 554.001 342.119 553.717 341.527 553.175C340.935 552.632 340.583 551.877 340.548 551.076C340.513 550.274 340.798 549.491 341.34 548.899L351.56 537.743L340.403 527.523C339.812 526.981 339.459 526.226 339.424 525.425C339.389 524.623 339.674 523.84 340.216 523.248C340.758 522.656 341.513 522.304 342.315 522.269C343.117 522.234 343.9 522.519 344.491 523.061L355.648 533.281L365.867 522.125C366.409 521.533 367.164 521.181 367.966 521.145C368.768 521.11 369.551 521.395 370.143 521.937V521.937Z" fill="#278BA0"/>
<path fill-rule="evenodd" clip-rule="evenodd" d="M45.2219 323.823C45.8137 324.365 46.1658 325.12 46.201 325.921C46.2361 326.723 45.9513 327.506 45.4092 328.098L35.1893 339.254L46.3455 349.474C46.9373 350.016 47.2895 350.771 47.3246 351.573C47.3597 352.374 47.0749 353.157 46.5328 353.749C45.9907 354.341 45.2357 354.693 44.434 354.728C43.6322 354.763 42.8493 354.478 42.2576 353.936L31.1014 343.716L20.8816 354.873C20.3395 355.464 19.5845 355.816 18.7828 355.852C17.981 355.887 17.1982 355.602 16.6064 355.06C16.0146 354.518 15.6625 353.763 15.6273 352.961C15.5922 352.159 15.877 351.376 16.4191 350.785L26.639 339.628L15.4828 329.409C14.891 328.866 14.5388 328.112 14.5037 327.31C14.4686 326.508 14.7534 325.725 15.2955 325.133C15.8376 324.542 16.5926 324.189 17.3943 324.154C18.1961 324.119 18.979 324.404 19.5707 324.946L30.7269 335.166L40.9467 324.01C41.4888 323.418 42.2438 323.066 43.0455 323.031C43.8473 322.996 44.6301 323.28 45.2219 323.823V323.823Z" fill="#278BA0"/>
<path fill-rule="evenodd" clip-rule="evenodd" d="M100.291 374.269C100.882 374.811 101.234 375.566 101.27 376.368C101.305 377.17 101.02 377.953 100.478 378.545L90.258 389.701L101.414 399.921C102.006 400.463 102.358 401.218 102.393 402.019C102.428 402.821 102.143 403.604 101.601 404.196C101.059 404.787 100.304 405.14 99.5026 405.175C98.7008 405.21 97.918 404.925 97.3262 404.383L86.17 394.163L75.9502 405.319C75.4081 405.911 74.6531 406.263 73.8514 406.298C73.0496 406.333 72.2668 406.049 71.675 405.507C71.0832 404.964 70.7311 404.21 70.6959 403.408C70.6608 402.606 70.9456 401.823 71.4877 401.231L81.7076 390.075L70.5514 379.855C69.9596 379.313 69.6075 378.558 69.5723 377.757C69.5372 376.955 69.822 376.172 70.3641 375.58C70.9062 374.988 71.6612 374.636 72.4629 374.601C73.2647 374.566 74.0476 374.851 74.6393 375.393L85.7955 385.613L96.0153 374.457C96.5574 373.865 97.3124 373.513 98.1141 373.478C98.9159 373.442 99.6988 373.727 100.291 374.269V374.269Z" fill="#278BA0"/>
<path fill-rule="evenodd" clip-rule="evenodd" d="M155.359 424.716C155.951 425.258 156.303 426.013 156.338 426.815C156.374 427.617 156.089 428.4 155.547 428.991L145.327 440.147L156.483 450.367C157.075 450.909 157.427 451.664 157.462 452.466C157.497 453.268 157.212 454.051 156.67 454.643C156.128 455.234 155.373 455.586 154.571 455.622C153.77 455.657 152.987 455.372 152.395 454.83L141.239 444.61L131.019 455.766C130.477 456.358 129.722 456.71 128.92 456.745C128.118 456.78 127.336 456.495 126.744 455.953C126.152 455.411 125.8 454.656 125.765 453.855C125.73 453.053 126.014 452.27 126.557 451.678L136.776 440.522L125.62 430.302C125.028 429.76 124.676 429.005 124.641 428.203C124.606 427.402 124.891 426.619 125.433 426.027C125.975 425.435 126.73 425.083 127.532 425.048C128.334 425.013 129.116 425.298 129.708 425.84L140.864 436.06L151.084 424.903C151.626 424.312 152.381 423.959 153.183 423.924C153.985 423.889 154.768 424.174 155.359 424.716V424.716Z" fill="#278BA0"/>
<path fill-rule="evenodd" clip-rule="evenodd" d="M210.428 475.163C211.02 475.705 211.372 476.46 211.407 477.262C211.442 478.064 211.157 478.846 210.615 479.438L200.395 490.594L211.552 500.814C212.143 501.356 212.496 502.111 212.531 502.913C212.566 503.715 212.281 504.498 211.739 505.089C211.197 505.681 210.442 506.033 209.64 506.068C208.838 506.104 208.055 505.819 207.464 505.277L196.307 495.057L186.088 506.213C185.546 506.805 184.791 507.157 183.989 507.192C183.187 507.227 182.404 506.942 181.812 506.4C181.221 505.858 180.869 505.103 180.833 504.301C180.798 503.5 181.083 502.717 181.625 502.125L191.845 490.969L180.689 480.749C180.097 480.207 179.745 479.452 179.71 478.65C179.675 477.848 179.959 477.066 180.502 476.474C181.044 475.882 181.799 475.53 182.6 475.495C183.402 475.46 184.185 475.744 184.777 476.287L195.933 486.506L206.153 475.35C206.695 474.758 207.45 474.406 208.252 474.371C209.053 474.336 209.836 474.621 210.428 475.163V475.163Z" fill="#278BA0"/>
<path fill-rule="evenodd" clip-rule="evenodd" d="M265.497 525.61C266.089 526.152 266.441 526.907 266.476 527.709C266.511 528.51 266.226 529.293 265.684 529.885L255.464 541.041L266.62 551.261C267.212 551.803 267.564 552.558 267.599 553.36C267.635 554.162 267.35 554.944 266.808 555.536C266.266 556.128 265.511 556.48 264.709 556.515C263.907 556.55 263.124 556.266 262.533 555.723L251.376 545.504L241.157 556.66C240.614 557.252 239.859 557.604 239.058 557.639C238.256 557.674 237.473 557.389 236.881 556.847C236.29 556.305 235.937 555.55 235.902 554.748C235.867 553.946 236.152 553.164 236.694 552.572L246.914 541.416L235.758 531.196C235.166 530.654 234.814 529.899 234.779 529.097C234.744 528.295 235.028 527.512 235.57 526.921C236.113 526.329 236.867 525.977 237.669 525.942C238.471 525.906 239.254 526.191 239.846 526.733L251.002 536.953L261.222 525.797C261.764 525.205 262.519 524.853 263.32 524.818C264.122 524.783 264.905 525.068 265.497 525.61V525.61Z" fill="#278BA0"/>
<path fill-rule="evenodd" clip-rule="evenodd" d="M320.566 576.057C321.157 576.599 321.51 577.354 321.545 578.155C321.58 578.957 321.295 579.74 320.753 580.332L310.533 591.488L321.689 601.708C322.281 602.25 322.633 603.005 322.668 603.807C322.703 604.608 322.419 605.391 321.877 605.983C321.334 606.575 320.579 606.927 319.778 606.962C318.976 606.997 318.193 606.712 317.601 606.17L306.445 595.95L296.225 607.107C295.683 607.698 294.928 608.05 294.127 608.086C293.325 608.121 292.542 607.836 291.95 607.294C291.358 606.752 291.006 605.997 290.971 605.195C290.936 604.393 291.221 603.61 291.763 603.019L301.983 591.862L290.827 581.643C290.235 581.101 289.883 580.346 289.847 579.544C289.812 578.742 290.097 577.959 290.639 577.367C291.181 576.776 291.936 576.423 292.738 576.388C293.54 576.353 294.323 576.638 294.914 577.18L306.071 587.4L316.29 576.244C316.833 575.652 317.588 575.3 318.389 575.265C319.191 575.23 319.974 575.514 320.566 576.057V576.057Z" fill="#278BA0"/>
</g>
</svg>
